<svg id="svg" version="1.1" width="400" height="145.4106280193237" viewBox="0 0 400 145.4106280193237" xmlns="http://www.w3.org/2000/svg" xmlns:xlink="http://www.w3.org/1999/xlink"><g id="svgg"><path id="path0" d="M231.933 3.474 C 231.875 3.567,231.909 3.694,232.008 3.755 C 232.265 3.914,232.430 3.697,232.216 3.483 C 232.096 3.363,232.003 3.360,231.933 3.474 M53.745 18.508 C 53.586 18.765,53.803 18.930,54.017 18.716 C 54.137 18.596,54.140 18.503,54.026 18.433 C 53.933 18.375,53.806 18.409,53.745 18.508 M45.926 28.087 C 45.749 28.222,45.447 28.333,45.256 28.333 C 44.894 28.333,43.333 29.650,43.333 29.956 C 43.333 30.052,43.225 30.173,43.092 30.224 C 42.888 30.302,42.849 31.171,42.838 35.775 C 42.827 40.339,42.785 41.277,42.579 41.505 C 42.300 41.814,42.254 42.167,42.495 42.167 C 42.584 42.167,42.616 42.062,42.567 41.934 C 42.518 41.805,42.541 41.661,42.619 41.613 C 42.747 41.533,42.784 42.163,42.676 42.583 C 42.652 42.675,42.637 43.012,42.641 43.333 C 42.649 43.863,42.637 43.878,42.511 43.500 C 42.432 43.264,42.370 46.202,42.369 50.280 C 42.367 56.301,42.404 57.492,42.600 57.567 C 42.953 57.702,42.938 62.205,42.583 62.500 C 42.284 62.749,42.233 63.582,42.528 63.399 C 42.659 63.318,42.688 63.370,42.617 63.556 C 42.558 63.709,42.583 63.833,42.672 63.833 C 42.774 63.833,42.833 68.052,42.833 75.407 C 42.833 81.772,42.898 87.020,42.977 87.069 C 43.056 87.118,43.161 87.664,43.211 88.282 C 43.260 88.900,43.383 89.433,43.484 89.467 C 43.584 89.500,43.667 89.824,43.667 90.186 C 43.667 90.617,43.753 90.877,43.917 90.940 C 44.080 91.002,44.167 91.262,44.167 91.690 C 44.167 92.117,44.253 92.377,44.417 92.440 C 44.554 92.492,44.667 92.715,44.667 92.934 C 44.667 93.178,44.764 93.333,44.917 93.333 C 45.073 93.333,45.167 93.491,45.167 93.755 C 45.167 93.987,45.279 94.220,45.417 94.273 C 45.554 94.326,45.667 94.473,45.667 94.601 C 45.667 94.729,45.779 94.833,45.917 94.833 C 46.083 94.833,46.167 95.000,46.167 95.333 C 46.167 95.667,46.250 95.833,46.417 95.833 C 46.554 95.833,46.667 95.948,46.667 96.089 C 46.667 96.229,46.779 96.387,46.917 96.440 C 47.054 96.492,47.167 96.715,47.167 96.934 C 47.167 97.178,47.264 97.333,47.417 97.333 C 47.554 97.333,47.667 97.414,47.667 97.513 C 47.667 97.612,47.892 97.917,48.167 98.192 C 48.442 98.467,48.667 98.770,48.667 98.866 C 48.667 98.961,48.967 99.330,49.333 99.686 C 49.700 100.042,50.000 100.408,50.000 100.500 C 50.000 100.592,50.112 100.667,50.250 100.667 C 50.387 100.667,50.500 100.779,50.500 100.917 C 50.500 101.054,50.612 101.167,50.750 101.167 C 50.887 101.167,51.000 101.279,51.000 101.417 C 51.000 101.554,51.112 101.667,51.250 101.667 C 51.387 101.667,51.500 101.779,51.500 101.917 C 51.500 102.054,51.612 102.167,51.750 102.167 C 51.887 102.167,52.000 102.279,52.000 102.417 C 52.000 102.554,52.080 102.667,52.179 102.667 C 52.409 102.667,52.833 103.091,52.833 103.321 C 52.833 103.420,52.946 103.500,53.083 103.500 C 53.221 103.500,53.333 103.612,53.333 103.750 C 53.333 103.888,53.446 104.000,53.583 104.000 C 53.721 104.000,53.833 104.112,53.833 104.250 C 53.833 104.388,53.946 104.500,54.083 104.500 C 54.221 104.500,54.333 104.612,54.333 104.750 C 54.333 104.888,54.446 105.000,54.583 105.000 C 54.721 105.000,54.833 105.112,54.833 105.250 C 54.833 105.388,54.946 105.500,55.083 105.500 C 55.221 105.500,55.333 105.612,55.333 105.750 C 55.333 105.888,55.438 106.000,55.566 106.000 C 55.693 106.000,55.841 106.112,55.894 106.250 C 55.948 106.391,56.196 106.500,56.461 106.500 C 56.721 106.500,57.023 106.590,57.133 106.700 C 57.289 106.856,57.333 106.837,57.333 106.617 C 57.333 106.461,57.409 106.333,57.501 106.333 C 57.806 106.333,60.720 105.137,62.583 104.247 C 63.592 103.765,64.792 103.206,65.250 103.004 C 67.254 102.120,72.649 99.376,72.833 99.146 C 72.879 99.089,73.608 98.659,74.452 98.191 C 78.400 96.004,85.109 91.305,87.850 88.807 C 88.620 88.105,89.662 87.208,90.167 86.813 C 96.490 81.860,97.802 76.785,93.615 73.475 C 91.817 72.053,91.257 71.936,85.027 71.671 C 80.733 71.488,81.296 71.301,78.083 73.973 C 77.900 74.126,77.375 74.550,76.917 74.917 C 76.458 75.283,76.046 75.624,76.000 75.674 C 75.803 75.890,73.849 77.333,73.755 77.333 C 73.656 77.333,70.460 79.707,70.062 80.076 C 69.959 80.172,69.703 80.362,69.494 80.500 C 68.985 80.835,66.793 82.508,65.719 83.381 C 62.463 86.028,59.893 87.835,59.388 87.831 C 59.176 87.829,58.888 87.437,58.438 86.539 C 57.720 85.103,55.848 82.216,55.333 81.750 C 54.707 81.184,54.905 80.800,56.805 78.894 C 61.301 74.384,67.468 69.385,68.904 69.087 C 69.524 68.957,73.077 68.667,74.035 68.667 C 74.853 68.667,75.058 68.595,75.693 68.082 C 76.581 67.365,76.498 67.431,77.917 66.329 C 78.558 65.831,79.121 65.384,79.167 65.336 C 79.212 65.287,79.887 64.743,80.667 64.127 C 81.446 63.511,82.677 62.537,83.403 61.962 C 85.572 60.244,87.980 58.390,89.750 57.077 C 90.667 56.396,91.492 55.779,91.583 55.704 C 91.675 55.629,92.388 55.086,93.167 54.498 C 93.946 53.909,94.621 53.384,94.667 53.331 C 94.712 53.278,95.295 52.812,95.961 52.295 C 96.627 51.779,97.101 51.312,97.014 51.259 C 96.928 51.205,88.670 51.182,78.664 51.206 L 60.471 51.250 60.152 50.857 C 59.863 50.499,59.833 50.166,59.833 47.227 L 59.833 43.992 60.236 43.839 C 60.458 43.754,60.777 43.686,60.945 43.687 C 61.113 43.687,62.075 43.613,63.083 43.520 C 68.100 43.062,71.632 43.001,93.918 42.989 C 120.567 42.974,118.619 42.872,120.266 44.377 C 121.237 45.265,121.260 45.486,120.483 46.478 C 119.594 47.613,115.966 51.063,114.522 52.146 C 114.097 52.464,113.221 53.180,112.574 53.737 C 111.926 54.294,111.101 54.986,110.740 55.275 C 110.379 55.564,109.679 56.126,109.186 56.525 C 107.581 57.821,106.222 58.892,104.470 60.238 C 102.573 61.695,98.947 64.700,98.420 65.252 C 98.235 65.445,97.483 66.058,96.750 66.612 C 96.017 67.166,94.909 68.080,94.288 68.643 C 93.668 69.206,93.072 69.667,92.963 69.667 C 92.819 69.667,92.822 69.722,92.976 69.875 C 93.139 70.038,94.986 70.070,101.412 70.022 C 111.101 69.949,111.416 69.989,113.057 71.485 C 114.882 73.148,114.986 76.928,113.298 80.236 C 112.965 80.889,111.233 83.499,111.022 83.667 C 110.964 83.712,110.617 84.125,110.252 84.583 C 108.739 86.478,102.141 93.108,100.667 94.214 C 100.162 94.592,99.460 95.167,99.107 95.492 C 98.753 95.817,98.278 96.254,98.051 96.464 C 97.824 96.673,97.213 97.158,96.694 97.541 C 96.175 97.925,95.563 98.403,95.333 98.604 C 94.507 99.330,91.900 101.346,91.084 101.891 C 87.824 104.069,86.732 104.752,84.967 105.721 C 83.967 106.269,80.327 107.882,78.869 108.422 C 78.253 108.650,77.600 108.906,77.417 108.991 C 75.688 109.791,67.447 112.667,66.884 112.667 C 66.764 112.667,66.666 112.723,66.664 112.792 C 66.663 112.860,66.617 113.085,66.562 113.292 C 66.488 113.567,66.532 113.667,66.731 113.667 C 66.879 113.667,67.000 113.779,67.000 113.917 C 67.000 114.137,67.314 114.253,67.721 114.182 C 67.796 114.169,67.807 114.240,67.746 114.340 C 67.682 114.443,67.781 114.561,67.972 114.611 C 68.158 114.660,68.351 114.805,68.400 114.933 C 68.449 115.062,68.679 115.167,68.911 115.167 C 69.175 115.167,69.333 115.260,69.333 115.417 C 69.333 115.583,69.500 115.667,69.833 115.667 C 70.167 115.667,70.333 115.750,70.333 115.917 C 70.333 116.083,70.500 116.167,70.833 116.167 C 71.167 116.167,71.333 116.250,71.333 116.417 C 71.333 116.554,71.446 116.667,71.583 116.667 C 71.721 116.667,71.833 116.742,71.833 116.833 C 71.833 116.925,72.013 117.000,72.232 117.000 C 72.452 117.000,72.674 117.112,72.727 117.250 C 72.780 117.387,73.005 117.500,73.227 117.500 C 73.449 117.500,73.674 117.612,73.727 117.750 C 73.780 117.888,74.013 118.000,74.245 118.000 C 74.509 118.000,74.667 118.094,74.667 118.250 C 74.667 118.415,74.831 118.500,75.149 118.500 C 75.424 118.500,75.672 118.607,75.727 118.750 C 75.783 118.897,76.033 119.000,76.333 119.000 C 76.633 119.000,76.883 119.103,76.940 119.250 C 76.993 119.389,77.241 119.500,77.500 119.500 C 77.759 119.500,78.007 119.611,78.060 119.750 C 78.113 119.888,78.338 120.000,78.560 120.000 C 78.783 120.000,79.008 120.112,79.060 120.250 C 79.113 120.388,79.346 120.500,79.578 120.500 C 79.810 120.500,80.000 120.572,80.000 120.659 C 80.000 120.747,80.279 120.871,80.621 120.935 C 80.962 120.999,81.343 121.152,81.466 121.276 C 81.589 121.399,81.835 121.500,82.012 121.500 C 82.189 121.500,82.333 121.575,82.333 121.667 C 82.333 121.758,82.671 121.833,83.083 121.833 C 83.639 121.833,83.833 121.898,83.833 122.083 C 83.833 122.250,84.000 122.333,84.333 122.333 C 84.667 122.333,84.833 122.417,84.833 122.583 C 84.833 122.777,85.054 122.833,85.816 122.833 C 86.535 122.833,86.823 122.900,86.894 123.083 C 87.030 123.440,88.970 123.440,89.106 123.083 C 89.159 122.946,89.384 122.833,89.606 122.833 C 89.829 122.833,90.054 122.721,90.106 122.583 C 90.169 122.420,90.428 122.333,90.851 122.333 C 91.317 122.333,91.500 122.263,91.500 122.083 C 91.500 121.917,91.667 121.833,92.000 121.833 C 92.275 121.833,92.500 121.758,92.500 121.667 C 92.500 121.575,92.645 121.500,92.821 121.500 C 92.998 121.500,93.255 121.387,93.393 121.250 C 93.530 121.112,93.801 121.000,93.993 121.000 C 94.186 121.000,94.387 120.888,94.440 120.750 C 94.499 120.595,94.753 120.500,95.106 120.500 C 95.444 120.500,95.714 120.404,95.767 120.265 C 95.817 120.136,96.040 119.984,96.262 119.929 C 96.485 119.873,96.667 119.753,96.667 119.663 C 96.667 119.574,96.894 119.500,97.172 119.500 C 97.467 119.500,97.717 119.396,97.773 119.250 C 97.826 119.112,98.040 119.000,98.250 119.000 C 98.460 119.000,98.674 118.888,98.727 118.750 C 98.780 118.612,99.013 118.500,99.245 118.500 C 99.509 118.500,99.667 118.406,99.667 118.250 C 99.667 118.083,99.833 118.000,100.167 118.000 C 100.500 118.000,100.667 117.917,100.667 117.750 C 100.667 117.585,100.831 117.500,101.149 117.500 C 101.424 117.500,101.672 117.393,101.727 117.250 C 101.780 117.112,101.964 117.000,102.137 117.000 C 102.310 117.000,102.654 116.812,102.901 116.583 C 103.148 116.354,103.499 116.167,103.680 116.167 C 103.862 116.167,104.054 116.054,104.106 115.917 C 104.159 115.779,104.382 115.667,104.601 115.667 C 104.845 115.667,105.000 115.569,105.000 115.417 C 105.000 115.279,105.145 115.167,105.321 115.167 C 105.498 115.167,105.755 115.054,105.893 114.917 C 106.030 114.779,106.223 114.667,106.321 114.667 C 106.420 114.667,106.500 114.554,106.500 114.417 C 106.500 114.260,106.658 114.167,106.922 114.167 C 107.154 114.167,107.387 114.054,107.440 113.917 C 107.492 113.779,107.632 113.667,107.750 113.667 C 107.868 113.667,108.008 113.554,108.060 113.417 C 108.113 113.279,108.311 113.167,108.500 113.167 C 108.689 113.167,108.887 113.054,108.940 112.917 C 108.992 112.779,109.215 112.667,109.434 112.667 C 109.678 112.667,109.833 112.569,109.833 112.417 C 109.833 112.279,109.946 112.167,110.083 112.167 C 110.221 112.167,110.333 112.100,110.333 112.018 C 110.333 111.936,110.508 111.826,110.721 111.772 C 110.935 111.719,111.307 111.491,111.549 111.267 C 111.791 111.043,112.142 110.811,112.328 110.752 C 112.514 110.693,112.667 110.574,112.667 110.489 C 112.667 110.403,112.764 110.333,112.883 110.333 C 113.002 110.333,113.283 110.112,113.508 109.840 C 113.733 109.569,114.085 109.344,114.292 109.340 C 114.511 109.336,114.667 109.229,114.667 109.083 C 114.667 108.946,114.779 108.833,114.917 108.833 C 115.054 108.833,115.167 108.721,115.167 108.583 C 115.167 108.446,115.279 108.333,115.417 108.333 C 115.554 108.333,115.667 108.221,115.667 108.083 C 115.667 107.946,115.784 107.833,115.928 107.833 C 116.421 107.833,119.000 105.587,119.000 105.157 C 119.000 105.071,119.112 105.000,119.250 105.000 C 119.388 105.000,119.500 104.888,119.500 104.750 C 119.500 104.612,119.612 104.500,119.750 104.500 C 119.888 104.500,120.000 104.388,120.000 104.250 C 120.000 104.112,120.112 104.000,120.250 104.000 C 120.388 104.000,120.500 103.888,120.500 103.750 C 120.500 103.612,120.612 103.500,120.750 103.500 C 120.888 103.500,121.000 103.388,121.000 103.250 C 121.000 103.112,121.085 103.000,121.189 103.000 C 121.293 103.000,121.552 102.813,121.765 102.583 C 121.977 102.354,122.229 102.167,122.325 102.167 C 122.421 102.167,122.500 102.054,122.500 101.917 C 122.500 101.779,122.612 101.667,122.750 101.667 C 122.888 101.667,123.000 101.588,123.000 101.492 C 123.000 101.396,123.188 101.144,123.417 100.931 C 123.646 100.719,123.833 100.460,123.833 100.356 C 123.833 100.252,123.946 100.167,124.083 100.167 C 124.221 100.167,124.333 100.054,124.333 99.917 C 124.333 99.779,124.428 99.667,124.543 99.667 C 124.658 99.667,124.846 99.454,124.961 99.194 C 125.076 98.934,125.544 98.321,126.002 97.831 C 126.459 97.342,126.833 96.804,126.833 96.637 C 126.833 96.470,126.904 96.333,126.991 96.333 C 127.146 96.333,127.557 95.692,127.765 95.125 C 127.824 94.965,127.933 94.833,128.006 94.833 C 128.080 94.833,128.190 94.608,128.250 94.333 C 128.310 94.058,128.429 93.833,128.513 93.833 C 128.598 93.833,128.667 93.646,128.667 93.417 C 128.667 93.157,128.761 93.000,128.917 93.000 C 129.083 93.000,129.167 92.833,129.167 92.500 C 129.167 92.167,129.250 92.000,129.417 92.000 C 129.583 92.000,129.667 91.833,129.667 91.500 C 129.667 91.167,129.750 91.000,129.917 91.000 C 130.081 91.000,130.167 90.835,130.167 90.518 C 130.167 90.243,130.274 89.994,130.417 89.940 C 130.582 89.876,130.667 89.615,130.667 89.172 C 130.667 88.686,130.736 88.500,130.917 88.500 C 131.096 88.500,131.167 88.317,131.167 87.851 C 131.167 87.428,131.254 87.169,131.417 87.106 C 131.596 87.037,131.667 86.756,131.667 86.106 C 131.667 85.457,131.737 85.175,131.917 85.106 C 132.106 85.034,132.167 84.728,132.167 83.852 C 132.167 83.074,132.235 82.672,132.375 82.625 C 132.559 82.564,132.752 68.015,132.840 47.583 C 132.861 42.610,132.578 34.776,132.375 34.708 C 132.260 34.670,132.167 34.455,132.167 34.231 C 132.167 34.006,132.054 33.780,131.917 33.727 C 131.779 33.674,131.667 33.543,131.667 33.436 C 131.667 33.211,131.076 32.667,130.831 32.667 C 130.741 32.667,130.667 32.477,130.667 32.245 C 130.667 32.013,130.554 31.780,130.417 31.727 C 130.279 31.674,130.167 31.527,130.167 31.399 C 130.167 31.271,130.054 31.167,129.917 31.167 C 129.779 31.167,129.667 31.054,129.667 30.917 C 129.667 30.750,129.500 30.667,129.167 30.667 C 128.892 30.667,128.667 30.588,128.667 30.492 C 128.667 30.268,127.476 29.169,127.233 29.167 C 127.132 29.167,126.709 28.985,126.292 28.764 C 125.618 28.406,125.235 28.347,122.846 28.240 C 121.367 28.174,120.118 28.055,120.069 27.977 C 119.944 27.774,118.708 27.798,118.580 28.006 C 118.512 28.115,117.409 28.171,115.569 28.159 C 113.548 28.145,112.697 28.085,112.774 27.961 C 112.853 27.834,110.980 27.820,106.317 27.912 C 102.705 27.984,99.188 28.034,98.500 28.024 C 90.498 27.901,75.003 27.894,75.333 28.013 C 75.642 28.123,75.598 28.130,75.167 28.040 C 74.361 27.872,71.158 27.885,70.750 28.059 C 70.274 28.261,64.963 28.306,64.701 28.109 C 64.559 28.002,64.421 28.013,64.293 28.140 C 64.041 28.393,62.248 28.389,61.781 28.136 C 61.177 27.809,46.351 27.763,45.926 28.087 M51.125 28.119 C 50.873 28.158,50.460 28.158,50.208 28.119 C 49.956 28.081,50.163 28.050,50.667 28.050 C 51.171 28.050,51.377 28.081,51.125 28.119 M58.958 28.119 C 58.706 28.158,58.294 28.158,58.042 28.119 C 57.790 28.081,57.996 28.050,58.500 28.050 C 59.004 28.050,59.210 28.081,58.958 28.119 M72.627 28.115 C 72.468 28.156,72.168 28.158,71.960 28.118 C 71.753 28.078,71.883 28.044,72.250 28.042 C 72.617 28.040,72.786 28.073,72.627 28.115 M90.460 28.115 C 90.301 28.156,90.001 28.158,89.794 28.118 C 89.586 28.078,89.717 28.044,90.083 28.042 C 90.450 28.040,90.620 28.073,90.460 28.115 M93.463 28.121 C 93.121 28.157,92.521 28.157,92.129 28.122 C 91.737 28.087,92.017 28.058,92.750 28.057 C 93.483 28.057,93.804 28.085,93.463 28.121 M106.542 28.124 C 105.877 28.155,104.790 28.155,104.125 28.124 C 103.460 28.092,104.004 28.066,105.333 28.066 C 106.662 28.066,107.206 28.092,106.542 28.124 M395.745 31.508 C 395.586 31.765,395.803 31.930,396.017 31.716 C 396.137 31.596,396.140 31.503,396.026 31.433 C 395.933 31.375,395.806 31.409,395.745 31.508 M10.245 32.008 C 10.086 32.265,10.303 32.430,10.517 32.216 C 10.637 32.096,10.640 32.003,10.526 31.933 C 10.433 31.875,10.306 31.909,10.245 32.008 M265.266 31.974 C 265.208 32.067,265.242 32.194,265.342 32.255 C 265.598 32.414,265.763 32.197,265.549 31.983 C 265.430 31.863,265.336 31.860,265.266 31.974 M372.578 41.675 C 372.420 41.931,372.637 42.097,372.851 41.883 C 372.970 41.763,372.973 41.670,372.859 41.599 C 372.766 41.542,372.640 41.576,372.578 41.675 M10.245 50.342 C 10.086 50.598,10.303 50.763,10.517 50.549 C 10.637 50.430,10.640 50.336,10.526 50.266 C 10.433 50.208,10.306 50.242,10.245 50.342 M305.911 59.508 C 305.753 59.765,305.970 59.930,306.184 59.716 C 306.304 59.596,306.307 59.503,306.193 59.433 C 306.099 59.375,305.973 59.409,305.911 59.508 M136.266 60.474 C 136.208 60.567,136.242 60.694,136.342 60.755 C 136.598 60.914,136.763 60.697,136.549 60.483 C 136.430 60.363,136.336 60.360,136.266 60.474 M339.192 61.492 C 339.263 61.707,339.492 61.745,339.512 61.546 C 339.519 61.479,339.435 61.395,339.325 61.358 C 339.215 61.322,339.155 61.382,339.192 61.492 M398.590 61.488 C 398.477 61.673,398.740 61.872,398.893 61.718 C 399.052 61.559,399.022 61.333,398.843 61.333 C 398.757 61.333,398.643 61.403,398.590 61.488 M165.257 71.155 C 165.143 71.339,165.406 71.538,165.560 71.384 C 165.719 71.226,165.689 71.000,165.510 71.000 C 165.424 71.000,165.310 71.070,165.257 71.155 M345.000 83.750 C 345.000 83.887,345.075 84.000,345.167 84.000 C 345.258 84.000,345.333 83.887,345.333 83.750 C 345.333 83.612,345.258 83.500,345.167 83.500 C 345.075 83.500,345.000 83.612,345.000 83.750 M384.099 93.307 C 384.042 93.401,384.076 93.527,384.175 93.589 C 384.431 93.747,384.597 93.530,384.383 93.316 C 384.263 93.196,384.170 93.193,384.099 93.307 M202.949 102.940 C 202.816 103.073,202.966 103.333,203.177 103.333 C 203.263 103.333,203.333 103.221,203.333 103.083 C 203.333 102.826,203.137 102.752,202.949 102.940 M192.833 107.417 C 192.833 107.554,192.908 107.667,193.000 107.667 C 193.092 107.667,193.167 107.554,193.167 107.417 C 193.167 107.279,193.092 107.167,193.000 107.167 C 192.908 107.167,192.833 107.279,192.833 107.417 M1.525 113.158 C 1.562 113.268,1.646 113.353,1.712 113.346 C 1.912 113.325,1.873 113.097,1.658 113.025 C 1.548 112.988,1.488 113.048,1.525 113.158 M101.578 121.342 C 101.420 121.598,101.637 121.763,101.851 121.549 C 101.970 121.430,101.973 121.336,101.859 121.266 C 101.766 121.208,101.640 121.242,101.578 121.342 M142.000 124.333 C 142.000 124.425,142.112 124.500,142.250 124.500 C 142.387 124.500,142.500 124.425,142.500 124.333 C 142.500 124.242,142.387 124.167,142.250 124.167 C 142.112 124.167,142.000 124.242,142.000 124.333 M162.358 127.658 C 162.395 127.768,162.479 127.853,162.546 127.846 C 162.745 127.825,162.707 127.597,162.492 127.525 C 162.382 127.488,162.322 127.548,162.358 127.658 M10.245 130.008 C 10.086 130.265,10.303 130.430,10.517 130.216 C 10.637 130.096,10.640 130.003,10.526 129.933 C 10.433 129.875,10.306 129.909,10.245 130.008 M308.667 133.500 C 308.667 133.592,308.779 133.667,308.917 133.667 C 309.054 133.667,309.167 133.592,309.167 133.500 C 309.167 133.408,309.054 133.333,308.917 133.333 C 308.779 133.333,308.667 133.408,308.667 133.500 M339.192 136.325 C 339.263 136.540,339.492 136.578,339.512 136.379 C 339.519 136.313,339.435 136.228,339.325 136.192 C 339.215 136.155,339.155 136.215,339.192 136.325 M331.924 141.655 C 331.810 141.839,332.073 142.038,332.227 141.884 C 332.385 141.726,332.356 141.500,332.177 141.500 C 332.090 141.500,331.977 141.570,331.924 141.655 M49.333 145.069 C 49.333 145.215,49.452 145.333,49.597 145.333 C 49.742 145.333,49.831 145.244,49.795 145.135 C 49.692 144.826,49.333 144.775,49.333 145.069 " stroke="none" fill="#165fa5" fill-rule="evenodd"></path><path id="path1" d="M198.879 29.970 C 198.583 30.124,198.339 30.344,198.337 30.458 C 198.335 30.573,198.221 30.667,198.083 30.667 C 197.946 30.667,197.833 30.779,197.833 30.917 C 197.833 31.054,197.721 31.167,197.583 31.167 C 197.419 31.167,197.333 31.331,197.333 31.649 C 197.333 31.924,197.226 32.172,197.083 32.227 C 196.887 32.302,196.833 32.644,196.833 33.833 C 196.833 35.022,196.887 35.364,197.083 35.440 C 197.221 35.492,197.333 35.671,197.333 35.837 C 197.333 36.240,198.378 37.296,198.909 37.430 C 199.142 37.488,199.333 37.603,199.333 37.685 C 199.333 37.766,199.625 37.833,199.982 37.833 C 200.405 37.833,200.664 37.920,200.727 38.083 C 200.796 38.264,201.080 38.333,201.750 38.333 C 202.420 38.333,202.704 38.264,202.773 38.083 C 202.836 37.920,203.095 37.833,203.518 37.833 C 203.875 37.833,204.167 37.760,204.167 37.670 C 204.167 37.580,204.354 37.459,204.583 37.402 C 204.813 37.344,205.000 37.230,205.000 37.149 C 205.000 37.067,205.104 37.000,205.231 37.000 C 205.357 37.000,205.502 36.842,205.553 36.650 C 205.604 36.452,205.723 36.349,205.826 36.412 C 205.926 36.474,205.998 36.463,205.984 36.387 C 205.905 35.928,206.033 35.500,206.250 35.500 C 206.457 35.500,206.500 35.185,206.500 33.661 C 206.500 32.181,206.451 31.804,206.250 31.727 C 206.112 31.674,206.000 31.527,206.000 31.399 C 206.000 31.271,205.887 31.167,205.750 31.167 C 205.612 31.167,205.500 31.054,205.500 30.917 C 205.500 30.779,205.387 30.667,205.250 30.667 C 205.112 30.667,205.000 30.554,205.000 30.417 C 205.000 30.264,204.845 30.167,204.601 30.167 C 204.382 30.167,204.159 30.054,204.106 29.917 C 203.959 29.534,199.633 29.578,198.879 29.970 M183.444 30.778 C 183.184 31.038,183.320 59.130,183.583 59.393 C 183.767 59.576,183.833 60.024,183.833 61.071 C 183.833 62.230,183.881 62.500,184.083 62.500 C 184.250 62.500,184.333 62.667,184.333 63.000 C 184.333 63.333,184.417 63.500,184.583 63.500 C 184.724 63.500,184.833 63.649,184.833 63.839 C 184.833 64.025,184.946 64.220,185.083 64.273 C 185.221 64.326,185.333 64.473,185.333 64.601 C 185.333 64.729,185.434 64.833,185.558 64.833 C 185.681 64.833,185.958 64.986,186.173 65.172 C 186.388 65.359,186.665 65.472,186.788 65.425 C 186.912 65.378,187.055 65.450,187.107 65.586 C 187.160 65.723,187.410 65.833,187.667 65.833 C 187.926 65.833,188.173 65.944,188.227 66.083 C 188.306 66.289,188.736 66.333,190.661 66.333 C 192.629 66.333,193.000 66.294,193.000 66.083 C 193.000 65.885,193.241 65.833,194.167 65.833 L 195.333 65.833 195.333 62.750 L 195.333 59.667 193.917 59.667 C 192.769 59.667,192.500 59.619,192.500 59.417 C 192.500 59.279,192.387 59.167,192.250 59.167 C 192.112 59.167,191.999 59.035,191.997 58.875 C 191.995 58.715,191.996 52.302,192.000 44.625 L 192.006 30.667 187.781 30.667 C 185.457 30.667,183.506 30.717,183.444 30.778 M151.000 31.899 C 151.000 32.027,150.890 32.173,150.756 32.225 C 150.544 32.306,150.511 34.523,150.503 49.071 L 150.494 65.824 161.342 65.831 C 167.519 65.835,172.150 65.775,172.099 65.692 C 172.049 65.611,172.467 65.504,173.028 65.453 C 173.588 65.402,174.092 65.290,174.148 65.204 C 174.204 65.118,174.531 64.996,174.875 64.933 C 175.219 64.870,175.500 64.747,175.500 64.659 C 175.500 64.572,175.612 64.500,175.750 64.500 C 175.887 64.500,176.000 64.387,176.000 64.250 C 176.000 64.083,176.167 64.000,176.500 64.000 C 176.833 64.000,177.000 63.917,177.000 63.750 C 177.000 63.612,177.112 63.500,177.250 63.500 C 177.387 63.500,177.500 63.387,177.500 63.250 C 177.500 63.112,177.612 63.000,177.750 63.000 C 177.887 63.000,178.000 62.887,178.000 62.750 C 178.000 62.612,178.112 62.500,178.250 62.500 C 178.387 62.500,178.500 62.387,178.500 62.250 C 178.500 62.112,178.612 62.000,178.750 62.000 C 178.887 62.000,179.000 61.887,179.000 61.750 C 179.000 61.612,179.112 61.500,179.250 61.500 C 179.403 61.500,179.500 61.345,179.500 61.101 C 179.500 60.882,179.612 60.659,179.750 60.606 C 179.887 60.554,180.000 60.327,180.000 60.102 C 180.000 59.878,180.094 59.663,180.208 59.625 C 180.365 59.573,180.417 58.796,180.417 56.500 C 180.417 54.204,180.365 53.427,180.208 53.375 C 180.094 53.337,180.000 53.122,180.000 52.898 C 180.000 52.673,179.887 52.446,179.750 52.394 C 179.612 52.341,179.500 52.118,179.500 51.899 C 179.500 51.655,179.403 51.500,179.250 51.500 C 179.112 51.500,179.000 51.387,179.000 51.250 C 179.000 51.112,178.887 51.000,178.750 51.000 C 178.612 51.000,178.500 50.887,178.500 50.750 C 178.500 50.612,178.387 50.500,178.250 50.500 C 178.112 50.500,178.000 50.387,178.000 50.250 C 178.000 50.112,177.887 50.000,177.750 50.000 C 177.612 50.000,177.500 49.887,177.500 49.750 C 177.500 49.612,177.396 49.500,177.268 49.500 C 177.140 49.500,176.992 49.387,176.940 49.250 C 176.887 49.112,176.654 49.000,176.422 49.000 C 176.083 49.000,176.000 48.918,176.000 48.583 C 176.000 48.169,176.515 47.500,176.833 47.500 C 176.925 47.500,177.000 47.387,177.000 47.250 C 177.000 47.112,177.074 47.000,177.163 47.000 C 177.253 47.000,177.374 46.813,177.432 46.583 C 177.489 46.354,177.641 46.167,177.768 46.167 C 177.896 46.167,178.000 46.052,178.000 45.911 C 178.000 45.771,178.112 45.613,178.250 45.560 C 178.413 45.498,178.500 45.238,178.500 44.816 C 178.500 44.345,178.570 44.167,178.754 44.167 C 179.122 44.167,179.105 38.197,178.738 38.056 C 178.607 38.005,178.500 37.747,178.500 37.482 C 178.500 37.165,178.415 37.000,178.250 37.000 C 178.112 37.000,178.000 36.897,178.000 36.770 C 178.000 36.644,177.887 36.447,177.750 36.333 C 177.612 36.219,177.500 35.985,177.500 35.813 C 177.500 35.641,177.387 35.500,177.250 35.500 C 177.112 35.500,177.000 35.387,177.000 35.250 C 177.000 35.112,176.887 35.000,176.750 35.000 C 176.612 35.000,176.500 34.896,176.500 34.769 C 176.500 34.643,176.369 34.495,176.208 34.441 C 175.804 34.305,175.335 33.982,174.919 33.553 C 174.725 33.353,174.363 33.139,174.115 33.076 C 173.867 33.014,173.622 32.896,173.572 32.815 C 173.522 32.733,173.185 32.667,172.823 32.667 C 172.351 32.667,172.167 32.597,172.167 32.417 C 172.167 32.214,171.898 32.167,170.750 32.167 C 169.602 32.167,169.333 32.119,169.333 31.917 C 169.333 31.697,168.204 31.667,160.167 31.667 C 152.443 31.667,151.000 31.703,151.000 31.899 M212.208 33.172 C 211.835 33.322,211.833 33.339,211.833 37.078 L 211.833 40.833 210.042 40.853 C 209.056 40.864,208.190 40.863,208.117 40.850 C 208.043 40.838,208.006 42.198,208.033 43.872 L 208.083 46.917 210.206 46.963 L 212.330 47.010 212.373 53.797 C 212.407 59.119,212.462 60.574,212.625 60.542 C 212.772 60.512,212.833 60.773,212.833 61.422 C 212.833 62.088,212.903 62.370,213.083 62.440 C 213.221 62.492,213.333 62.640,213.333 62.768 C 213.333 62.896,213.446 63.000,213.583 63.000 C 213.750 63.000,213.833 63.167,213.833 63.500 C 213.833 63.833,213.917 64.000,214.083 64.000 C 214.221 64.000,214.333 64.112,214.333 64.250 C 214.333 64.387,214.438 64.500,214.566 64.500 C 214.693 64.500,214.841 64.612,214.894 64.750 C 214.946 64.887,215.142 65.000,215.328 65.000 C 215.514 65.000,215.667 65.070,215.667 65.154 C 215.667 65.436,216.706 65.833,217.442 65.833 C 217.975 65.833,218.167 65.899,218.167 66.083 C 218.167 66.297,218.648 66.333,221.500 66.333 C 224.352 66.333,224.833 66.297,224.833 66.083 C 224.833 65.898,225.028 65.833,225.583 65.833 C 225.996 65.833,226.333 65.758,226.333 65.667 C 226.333 65.575,226.477 65.500,226.653 65.500 C 227.723 65.500,228.932 63.005,228.011 62.698 C 227.913 62.666,227.833 62.241,227.833 61.754 C 227.833 61.135,227.761 60.841,227.592 60.776 C 227.428 60.714,227.334 60.372,227.300 59.717 L 227.250 58.750 226.292 58.700 C 225.516 58.660,225.333 58.699,225.333 58.908 C 225.333 59.070,225.184 59.167,224.934 59.167 C 224.715 59.167,224.492 59.279,224.440 59.417 C 224.365 59.612,224.032 59.667,222.922 59.667 C 221.769 59.667,221.500 59.619,221.500 59.417 C 221.500 59.279,221.387 59.167,221.250 59.167 C 221.112 59.167,221.000 59.054,221.000 58.917 C 221.000 58.779,220.887 58.667,220.750 58.667 C 220.573 58.667,220.498 58.483,220.493 58.042 C 220.454 54.477,220.480 47.131,220.532 47.079 C 220.569 47.042,222.114 47.003,223.966 46.993 L 227.333 46.975 227.333 43.904 L 227.333 40.833 223.667 40.833 L 220.000 40.833 220.000 37.019 L 220.000 33.206 219.625 33.105 C 219.034 32.947,212.625 33.004,212.208 33.172 M164.088 39.102 C 164.405 39.309,164.848 39.361,166.041 39.327 C 168.420 39.260,168.833 39.298,168.833 39.583 C 168.833 39.750,169.000 39.833,169.333 39.833 C 169.718 39.833,169.833 39.908,169.833 40.158 C 169.833 40.337,169.945 40.546,170.082 40.623 C 170.219 40.699,170.348 40.966,170.369 41.214 C 170.389 41.463,170.502 41.667,170.620 41.667 C 170.765 41.667,170.833 41.933,170.833 42.500 C 170.833 43.130,170.772 43.333,170.583 43.333 C 170.428 43.333,170.333 43.491,170.333 43.750 C 170.333 44.009,170.239 44.167,170.083 44.167 C 169.946 44.167,169.833 44.279,169.833 44.417 C 169.833 44.554,169.721 44.667,169.583 44.667 C 169.446 44.667,169.333 44.770,169.333 44.895 C 169.333 45.043,169.043 45.162,168.507 45.233 C 168.052 45.294,167.635 45.416,167.580 45.505 C 167.520 45.603,165.832 45.667,163.323 45.667 L 159.167 45.667 159.167 42.250 L 159.167 38.833 161.423 38.833 C 163.216 38.833,163.762 38.888,164.088 39.102 M197.944 40.444 C 197.883 40.506,197.833 46.243,197.833 53.194 L 197.833 65.833 201.917 65.833 L 206.000 65.833 206.000 53.333 C 206.000 42.760,205.964 40.833,205.768 40.833 C 205.640 40.833,205.492 40.721,205.440 40.583 C 205.339 40.321,198.200 40.189,197.944 40.444 M229.667 43.917 L 229.667 47.000 236.000 47.000 C 241.519 47.000,242.333 47.032,242.333 47.250 C 242.333 47.387,242.221 47.500,242.083 47.500 C 241.946 47.500,241.833 47.612,241.833 47.750 C 241.833 47.887,241.721 48.000,241.583 48.000 C 241.446 48.000,241.333 48.112,241.333 48.250 C 241.333 48.387,241.221 48.500,241.083 48.500 C 240.946 48.500,240.833 48.612,240.833 48.750 C 240.833 48.887,240.721 49.000,240.583 49.000 C 240.446 49.000,240.333 49.112,240.333 49.250 C 240.333 49.387,240.221 49.500,240.083 49.500 C 239.946 49.500,239.833 49.575,239.833 49.667 C 239.833 49.883,239.216 50.500,239.000 50.500 C 238.908 50.500,238.833 50.578,238.833 50.673 C 238.833 50.769,238.533 51.132,238.167 51.481 C 237.800 51.830,237.500 52.199,237.500 52.302 C 237.500 52.405,237.387 52.446,237.250 52.394 C 237.092 52.333,237.000 52.396,237.000 52.566 C 237.000 52.713,236.887 52.833,236.750 52.833 C 236.612 52.833,236.500 52.946,236.500 53.083 C 236.500 53.221,236.396 53.333,236.269 53.333 C 236.143 53.333,235.998 53.491,235.947 53.683 C 235.897 53.876,235.776 53.984,235.678 53.924 C 235.580 53.863,235.500 53.931,235.500 54.073 C 235.500 54.216,235.379 54.333,235.232 54.333 C 235.063 54.333,235.000 54.425,235.060 54.583 C 235.113 54.721,235.072 54.833,234.970 54.833 C 234.737 54.833,233.667 55.921,233.667 56.158 C 233.667 56.255,233.592 56.333,233.500 56.333 C 233.408 56.333,232.918 56.746,232.409 57.250 C 231.901 57.754,231.414 58.167,231.326 58.167 C 231.238 58.167,231.167 58.279,231.167 58.417 C 231.167 58.554,231.054 58.667,230.917 58.667 C 230.779 58.667,230.667 58.779,230.667 58.917 C 230.667 59.054,230.554 59.167,230.417 59.167 C 230.279 59.167,230.167 59.279,230.167 59.417 C 230.167 59.554,230.054 59.667,229.917 59.667 C 229.779 59.667,229.667 59.771,229.667 59.899 C 229.667 60.027,229.551 60.175,229.410 60.229 C 229.193 60.313,229.158 60.740,229.182 63.080 L 229.210 65.833 241.251 65.833 C 253.425 65.833,254.372 65.789,253.508 65.255 C 253.213 65.072,253.284 62.025,253.591 61.718 C 253.773 61.536,253.835 61.207,253.800 60.605 L 253.750 59.750 247.466 59.706 L 241.182 59.663 241.549 58.923 C 241.751 58.516,242.010 58.179,242.125 58.175 C 242.240 58.170,242.333 58.082,242.333 57.977 C 242.333 57.873,242.521 57.614,242.750 57.402 C 242.979 57.190,243.167 56.937,243.167 56.841 C 243.167 56.745,243.279 56.667,243.417 56.667 C 243.554 56.667,243.667 56.554,243.667 56.417 C 243.667 56.279,243.779 56.167,243.917 56.167 C 244.054 56.167,244.167 56.092,244.167 56.000 C 244.167 55.908,244.279 55.833,244.417 55.833 C 244.554 55.833,244.667 55.721,244.667 55.583 C 244.667 55.446,244.779 55.333,244.917 55.333 C 245.054 55.333,245.167 55.221,245.167 55.083 C 245.167 54.946,245.279 54.833,245.417 54.833 C 245.554 54.833,245.667 54.721,245.667 54.583 C 245.667 54.446,245.779 54.333,245.917 54.333 C 246.054 54.333,246.167 54.221,246.167 54.083 C 246.167 53.946,246.284 53.833,246.427 53.833 C 246.569 53.833,246.649 53.773,246.603 53.698 C 246.557 53.624,246.740 53.381,247.010 53.159 C 247.279 52.936,247.500 52.659,247.500 52.543 C 247.500 52.428,247.612 52.333,247.750 52.333 C 247.887 52.333,248.000 52.221,248.000 52.083 C 248.000 51.946,248.075 51.833,248.167 51.833 C 248.258 51.833,248.749 51.421,249.257 50.917 C 249.765 50.413,250.253 50.000,250.341 50.000 C 250.428 50.000,250.500 49.927,250.500 49.837 C 250.500 49.747,250.912 49.268,251.417 48.772 C 251.921 48.275,252.333 47.786,252.333 47.685 C 252.333 47.583,252.446 47.500,252.583 47.500 C 252.721 47.500,252.833 47.387,252.833 47.250 C 252.833 47.112,252.946 47.000,253.083 47.000 C 253.297 47.000,253.333 46.546,253.333 43.917 L 253.333 40.833 241.500 40.833 L 229.667 40.833 229.667 43.917 M78.917 43.684 C 66.439 43.793,61.086 44.014,60.659 44.441 C 60.556 44.544,60.510 45.754,60.538 47.596 L 60.583 50.583 79.076 50.626 C 89.671 50.650,97.632 50.732,97.717 50.817 C 97.933 51.033,97.712 51.594,97.344 51.768 C 97.170 51.850,96.741 52.159,96.389 52.456 C 95.324 53.354,91.613 56.217,90.824 56.750 C 90.417 57.024,90.046 57.294,90.000 57.349 C 89.954 57.403,88.979 58.150,87.833 59.008 C 86.688 59.866,85.667 60.646,85.565 60.742 C 84.964 61.308,84.224 61.905,82.667 63.078 C 81.704 63.802,80.879 64.447,80.833 64.509 C 80.787 64.572,80.228 65.022,79.591 65.509 C 78.953 65.996,78.278 66.523,78.091 66.680 C 77.903 66.837,77.151 67.461,76.419 68.066 L 75.087 69.167 73.252 69.172 C 71.246 69.177,69.300 69.383,68.659 69.657 C 67.347 70.219,62.691 73.862,60.000 76.432 C 59.496 76.914,58.896 77.467,58.667 77.662 C 56.037 79.895,55.292 80.970,55.850 81.727 C 56.250 82.270,56.290 82.322,56.836 82.984 C 57.018 83.204,57.167 83.485,57.167 83.609 C 57.167 83.732,57.230 83.833,57.307 83.833 C 57.384 83.833,57.534 84.002,57.642 84.208 C 57.750 84.415,58.065 84.958,58.342 85.417 C 58.620 85.875,58.924 86.450,59.018 86.695 C 59.246 87.284,59.617 87.404,60.148 87.059 C 60.866 86.593,64.533 83.816,64.989 83.393 C 65.222 83.177,65.457 83.000,65.510 83.000 C 65.563 83.000,65.864 82.767,66.178 82.483 C 66.962 81.775,68.446 80.638,69.250 80.130 C 69.617 79.898,70.109 79.530,70.344 79.312 C 70.579 79.095,71.216 78.600,71.760 78.213 C 72.305 77.826,73.360 77.076,74.106 76.546 C 75.422 75.612,76.145 75.049,77.589 73.833 C 79.759 72.007,80.569 71.407,80.980 71.319 C 82.046 71.092,90.890 71.449,91.575 71.746 C 96.605 73.931,97.902 78.689,94.626 82.944 C 93.844 83.960,90.798 86.892,89.490 87.888 C 89.072 88.206,88.397 88.781,87.990 89.165 C 87.583 89.550,86.912 90.138,86.500 90.474 C 86.087 90.809,85.725 91.140,85.694 91.208 C 85.664 91.277,85.574 91.333,85.495 91.333 C 85.415 91.333,85.148 91.521,84.900 91.751 C 84.652 91.981,83.692 92.674,82.766 93.292 C 81.841 93.910,80.558 94.797,79.917 95.262 C 79.275 95.727,78.637 96.159,78.500 96.222 C 78.362 96.285,78.052 96.467,77.810 96.627 C 76.459 97.516,75.350 98.167,75.187 98.167 C 75.084 98.167,75.000 98.237,75.000 98.322 C 75.000 98.408,74.836 98.530,74.635 98.593 C 74.434 98.657,73.777 99.011,73.176 99.379 C 70.793 100.839,68.417 102.024,61.750 105.080 C 60.889 105.474,59.045 106.212,58.467 106.394 C 58.311 106.443,58.067 106.710,57.923 106.987 C 57.694 107.430,57.693 107.479,57.915 107.394 C 58.075 107.333,58.167 107.395,58.167 107.566 C 58.167 107.713,58.279 107.833,58.417 107.833 C 58.554 107.833,58.667 107.946,58.667 108.083 C 58.667 108.221,58.779 108.333,58.917 108.333 C 59.054 108.333,59.167 108.446,59.167 108.583 C 59.167 108.750,59.333 108.833,59.667 108.833 C 60.000 108.833,60.167 108.917,60.167 109.083 C 60.167 109.221,60.279 109.333,60.417 109.333 C 60.554 109.333,60.667 109.446,60.667 109.583 C 60.667 109.750,60.833 109.833,61.167 109.833 C 61.442 109.833,61.667 109.903,61.667 109.988 C 61.667 110.257,62.810 111.368,62.979 111.263 C 63.067 111.208,63.272 111.296,63.433 111.457 C 63.594 111.618,63.807 111.753,63.905 111.758 C 64.003 111.762,64.065 111.854,64.043 111.963 C 63.996 112.190,64.728 112.418,64.989 112.257 C 65.094 112.192,65.123 112.252,65.064 112.408 C 64.863 112.932,65.891 112.714,68.583 111.664 C 68.767 111.592,69.442 111.370,70.083 111.171 C 70.725 110.971,71.475 110.710,71.750 110.591 C 72.025 110.473,72.625 110.241,73.083 110.077 C 73.542 109.913,73.988 109.716,74.075 109.639 C 74.162 109.563,74.376 109.500,74.550 109.500 C 74.724 109.500,75.103 109.398,75.391 109.273 C 75.680 109.148,76.254 108.912,76.667 108.750 C 77.079 108.588,77.653 108.352,77.942 108.227 C 78.231 108.102,78.572 108.000,78.700 108.000 C 78.828 108.000,79.005 107.937,79.092 107.861 C 79.179 107.784,79.625 107.587,80.083 107.422 C 82.238 106.646,85.905 104.823,87.667 103.653 C 88.446 103.135,89.608 102.368,90.250 101.949 C 91.221 101.314,93.078 99.919,93.965 99.159 C 94.083 99.058,94.683 98.592,95.298 98.125 C 95.913 97.657,97.172 96.631,98.095 95.845 C 99.019 95.060,100.003 94.229,100.283 94.000 C 101.730 92.815,104.835 89.854,105.810 88.729 C 106.118 88.374,107.093 87.331,107.977 86.411 C 112.395 81.812,113.925 78.953,113.907 75.333 C 113.896 73.282,113.677 72.653,112.630 71.663 C 111.450 70.548,111.860 70.592,101.667 70.500 C 92.436 70.417,92.417 70.416,92.367 70.068 C 92.333 69.834,92.499 69.579,92.867 69.296 C 93.169 69.063,93.607 68.696,93.840 68.478 C 94.892 67.496,96.136 66.500,96.310 66.500 C 96.414 66.500,96.500 66.438,96.500 66.362 C 96.500 66.285,96.819 65.988,97.208 65.701 C 97.598 65.414,98.285 64.838,98.736 64.421 C 99.186 64.004,100.274 63.083,101.153 62.374 C 102.031 61.665,102.835 61.010,102.938 60.918 C 103.041 60.825,103.294 60.637,103.500 60.500 C 103.706 60.362,103.959 60.172,104.062 60.077 C 104.165 59.981,104.850 59.438,105.583 58.869 C 107.129 57.670,108.276 56.764,108.751 56.364 C 108.935 56.210,109.610 55.672,110.251 55.169 C 110.892 54.666,111.500 54.176,111.601 54.080 C 112.097 53.610,113.861 52.112,114.765 51.392 C 117.316 49.361,120.667 45.944,120.667 45.373 C 120.667 45.024,119.490 44.189,118.529 43.857 C 117.382 43.460,108.911 43.423,78.917 43.684 M168.833 52.583 C 168.833 52.721,168.890 52.824,168.958 52.814 C 169.572 52.717,170.333 52.866,170.333 53.083 C 170.333 53.221,170.413 53.333,170.509 53.333 C 170.869 53.333,171.632 54.382,171.733 55.017 C 171.791 55.374,171.930 55.668,172.044 55.669 C 172.195 55.671,172.190 55.710,172.026 55.814 C 171.903 55.891,171.791 56.258,171.776 56.629 C 171.762 56.999,171.724 57.277,171.692 57.246 C 171.660 57.214,171.419 57.409,171.156 57.678 C 170.893 57.947,170.600 58.167,170.506 58.167 C 170.411 58.167,170.333 58.279,170.333 58.417 C 170.333 58.583,170.167 58.667,169.833 58.667 C 169.500 58.667,169.333 58.750,169.333 58.917 C 169.333 59.133,168.657 59.167,164.250 59.167 L 159.167 59.167 159.167 55.750 L 159.167 52.333 164.000 52.333 C 168.185 52.333,168.833 52.367,168.833 52.583 M248.106 71.918 C 247.869 72.535,248.013 101.621,248.255 101.940 C 248.384 102.111,248.492 102.491,248.495 102.785 C 248.501 103.423,248.998 104.490,249.292 104.496 C 249.406 104.498,249.500 104.612,249.500 104.750 C 249.500 104.888,249.612 105.000,249.750 105.000 C 249.887 105.000,250.000 105.112,250.000 105.250 C 250.000 105.388,250.112 105.500,250.250 105.500 C 250.387 105.500,250.500 105.612,250.500 105.750 C 250.500 105.888,250.604 106.000,250.732 106.000 C 250.860 106.000,251.008 106.112,251.060 106.250 C 251.122 106.410,251.384 106.502,251.786 106.505 C 252.133 106.508,252.562 106.621,252.740 106.755 C 253.221 107.119,258.467 107.114,258.606 106.750 C 258.672 106.580,258.937 106.500,259.434 106.500 L 260.167 106.500 260.167 103.583 L 260.167 100.667 258.667 100.667 C 257.711 100.667,257.167 100.602,257.167 100.488 C 257.167 100.390,257.054 100.197,256.917 100.060 C 256.700 99.843,256.480 92.019,256.631 89.917 C 256.802 87.548,256.796 72.406,256.624 72.199 C 256.510 72.061,256.435 71.904,256.458 71.849 C 256.482 71.795,254.634 71.730,252.352 71.706 C 248.742 71.667,248.192 71.694,248.106 71.918 M163.064 72.908 C 163.009 73.050,162.878 73.167,162.773 73.167 C 162.668 73.167,162.479 73.410,162.353 73.708 C 162.228 74.006,162.022 74.468,161.896 74.734 C 161.770 75.000,161.667 75.386,161.667 75.591 C 161.667 75.796,161.554 76.008,161.417 76.060 C 161.279 76.113,161.167 76.346,161.167 76.578 C 161.167 76.842,161.073 77.000,160.917 77.000 C 160.750 77.000,160.667 77.167,160.667 77.500 C 160.667 77.833,160.583 78.000,160.417 78.000 C 160.250 78.000,160.167 78.167,160.167 78.500 C 160.167 78.833,160.083 79.000,159.917 79.000 C 159.750 79.000,159.667 79.167,159.667 79.500 C 159.667 79.833,159.583 80.000,159.417 80.000 C 159.265 80.000,159.167 80.155,159.167 80.396 C 159.167 80.614,159.054 80.886,158.917 81.000 C 158.779 81.114,158.667 81.461,158.667 81.770 C 158.667 82.110,158.584 82.333,158.458 82.333 C 158.344 82.334,158.239 82.531,158.225 82.772 C 158.211 83.013,158.115 83.262,158.012 83.326 C 157.910 83.389,157.792 83.618,157.750 83.833 C 157.708 84.049,157.609 84.269,157.528 84.321 C 157.447 84.374,157.330 84.698,157.266 85.042 C 157.203 85.385,157.080 85.667,156.992 85.667 C 156.905 85.667,156.833 85.892,156.833 86.167 C 156.833 86.500,156.750 86.667,156.583 86.667 C 156.417 86.667,156.333 86.833,156.333 87.167 C 156.333 87.500,156.250 87.667,156.083 87.667 C 155.917 87.667,155.833 87.833,155.833 88.167 C 155.833 88.500,155.750 88.667,155.583 88.667 C 155.431 88.667,155.333 88.822,155.333 89.066 C 155.333 89.285,155.221 89.508,155.083 89.560 C 154.946 89.613,154.833 89.838,154.833 90.060 C 154.833 90.283,154.721 90.508,154.583 90.560 C 154.446 90.613,154.333 90.848,154.333 91.083 C 154.333 91.318,154.221 91.554,154.083 91.606 C 153.946 91.659,153.831 91.863,153.828 92.059 C 153.825 92.256,153.713 92.562,153.578 92.740 C 153.443 92.918,153.333 93.274,153.333 93.532 C 153.333 93.837,153.246 94.000,153.083 94.000 C 152.928 94.000,152.833 94.157,152.833 94.417 C 152.833 94.646,152.758 94.833,152.667 94.833 C 152.575 94.833,152.500 95.050,152.500 95.316 C 152.500 95.590,152.393 95.839,152.250 95.894 C 152.085 95.957,152.000 96.218,152.000 96.661 C 152.000 97.148,151.931 97.333,151.750 97.333 C 151.583 97.333,151.500 97.500,151.500 97.833 C 151.500 98.167,151.417 98.333,151.250 98.333 C 151.097 98.333,151.000 98.489,151.000 98.732 C 151.000 98.952,150.887 99.174,150.750 99.227 C 150.612 99.280,150.500 99.505,150.500 99.727 C 150.500 99.949,150.387 100.174,150.250 100.227 C 150.112 100.280,150.000 100.504,150.000 100.724 C 150.000 100.945,149.887 101.219,149.750 101.333 C 149.612 101.447,149.500 101.682,149.500 101.854 C 149.500 102.026,149.425 102.167,149.333 102.167 C 149.242 102.167,149.167 102.262,149.167 102.377 C 149.167 102.493,149.017 102.868,148.833 103.210 C 148.650 103.552,148.500 103.976,148.500 104.152 C 148.500 104.328,148.410 104.502,148.300 104.539 C 148.180 104.579,148.097 104.963,148.092 105.511 L 148.083 106.417 152.625 106.461 L 157.167 106.505 157.167 105.753 C 157.167 105.195,157.231 105.000,157.417 105.000 C 157.583 105.000,157.667 104.833,157.667 104.500 C 157.667 104.167,157.750 104.000,157.917 104.000 C 158.083 104.000,158.167 103.833,158.167 103.500 C 158.167 103.167,158.250 103.000,158.417 103.000 C 158.583 103.000,158.667 102.833,158.667 102.500 C 158.667 102.167,158.750 102.000,158.917 102.000 C 159.097 102.000,159.167 101.815,159.167 101.333 C 159.167 100.852,159.236 100.667,159.417 100.667 C 159.582 100.667,159.667 100.501,159.667 100.179 L 159.667 99.691 165.125 99.637 C 172.619 99.563,173.667 99.607,173.667 99.991 C 173.667 100.157,173.779 100.386,173.917 100.500 C 174.054 100.614,174.167 100.878,174.167 101.086 C 174.167 101.294,174.279 101.508,174.417 101.560 C 174.554 101.613,174.667 101.848,174.667 102.083 C 174.667 102.318,174.779 102.554,174.917 102.606 C 175.054 102.659,175.167 102.882,175.167 103.101 C 175.167 103.345,175.264 103.500,175.417 103.500 C 175.583 103.500,175.667 103.667,175.667 104.000 C 175.667 104.333,175.750 104.500,175.917 104.500 C 176.082 104.500,176.167 104.665,176.167 104.986 C 176.167 105.253,176.239 105.497,176.329 105.528 C 176.418 105.558,176.519 105.771,176.553 106.000 L 176.616 106.417 181.142 106.461 L 185.667 106.505 185.667 105.767 C 185.667 105.360,185.585 105.001,185.486 104.968 C 185.387 104.934,185.288 104.660,185.267 104.358 C 185.246 104.056,185.159 103.758,185.073 103.696 C 184.987 103.634,184.767 103.283,184.585 102.917 C 184.403 102.550,184.159 102.190,184.043 102.117 C 183.928 102.043,183.833 101.846,183.833 101.679 C 183.833 101.511,183.721 101.281,183.583 101.167 C 183.446 101.053,183.333 100.704,183.333 100.391 C 183.333 100.040,183.238 99.786,183.083 99.727 C 182.946 99.674,182.833 99.460,182.833 99.250 C 182.833 99.040,182.721 98.826,182.583 98.773 C 182.426 98.713,182.333 98.457,182.333 98.083 C 182.333 97.709,182.241 97.454,182.083 97.394 C 181.946 97.341,181.833 97.165,181.833 97.003 C 181.833 96.840,181.721 96.614,181.583 96.500 C 181.446 96.386,181.333 96.112,181.333 95.891 C 181.333 95.670,181.221 95.446,181.083 95.394 C 180.946 95.341,180.833 95.118,180.833 94.899 C 180.833 94.679,180.758 94.500,180.667 94.500 C 180.575 94.500,180.500 94.355,180.500 94.179 C 180.500 94.002,180.387 93.745,180.250 93.607 C 180.112 93.470,180.000 93.164,180.000 92.929 C 180.000 92.659,179.907 92.500,179.750 92.500 C 179.583 92.500,179.500 92.333,179.500 92.000 C 179.500 91.695,179.421 91.516,179.297 91.542 C 179.183 91.565,179.055 91.343,179.005 91.035 C 178.957 90.734,178.842 90.491,178.750 90.496 C 178.658 90.502,178.560 90.205,178.532 89.836 C 178.498 89.388,178.401 89.167,178.240 89.167 C 178.108 89.167,178.000 89.022,178.000 88.845 C 178.000 88.668,177.887 88.411,177.750 88.274 C 177.612 88.136,177.500 87.831,177.500 87.595 C 177.500 87.325,177.407 87.167,177.250 87.167 C 177.083 87.167,177.000 87.000,177.000 86.667 C 177.000 86.333,176.917 86.167,176.750 86.167 C 176.569 86.167,176.500 85.981,176.500 85.500 C 176.500 85.133,176.426 84.833,176.337 84.833 C 176.247 84.833,176.122 84.627,176.059 84.375 C 175.996 84.123,175.834 83.835,175.699 83.735 C 175.565 83.636,175.490 83.448,175.533 83.319 C 175.577 83.189,175.503 83.002,175.369 82.904 C 175.235 82.805,175.125 82.528,175.125 82.289 C 175.125 82.049,175.022 81.813,174.896 81.765 C 174.761 81.713,174.667 81.434,174.667 81.089 C 174.667 80.677,174.592 80.500,174.417 80.500 C 174.260 80.500,174.167 80.342,174.167 80.078 C 174.167 79.846,174.054 79.613,173.917 79.560 C 173.774 79.506,173.667 79.257,173.667 78.982 C 173.667 78.665,173.581 78.500,173.417 78.500 C 173.250 78.500,173.167 78.333,173.167 78.000 C 173.167 77.667,173.083 77.500,172.917 77.500 C 172.743 77.500,172.667 77.325,172.667 76.925 C 172.667 76.588,172.564 76.292,172.418 76.211 C 172.281 76.134,172.152 75.868,172.131 75.619 C 172.111 75.370,171.998 75.167,171.880 75.167 C 171.754 75.167,171.667 74.962,171.667 74.667 C 171.667 74.392,171.598 74.167,171.513 74.167 C 171.429 74.167,171.310 73.942,171.250 73.667 C 171.190 73.392,171.042 73.167,170.921 73.167 C 170.801 73.167,170.664 73.067,170.618 72.946 C 170.481 72.589,163.200 72.552,163.064 72.908 M200.083 81.070 C 199.900 81.209,199.431 81.325,199.042 81.328 C 198.526 81.332,198.333 81.401,198.333 81.583 C 198.333 81.750,198.167 81.833,197.833 81.833 C 197.500 81.833,197.333 81.917,197.333 82.083 C 197.333 82.221,197.221 82.333,197.083 82.333 C 196.946 82.333,196.833 82.437,196.833 82.564 C 196.833 82.694,196.613 82.828,196.333 82.869 C 195.863 82.938,195.833 82.909,195.833 82.388 C 195.833 82.006,195.755 81.833,195.583 81.833 C 195.446 81.833,195.333 81.718,195.333 81.578 C 195.333 81.356,194.838 81.325,191.500 81.340 L 187.667 81.356 187.667 93.928 L 187.667 106.500 191.375 106.498 C 193.415 106.496,195.252 106.450,195.458 106.395 L 195.833 106.294 195.833 98.897 C 195.833 92.214,195.859 91.500,196.101 91.500 C 196.248 91.500,196.333 91.406,196.290 91.292 C 196.173 90.985,196.469 90.295,196.665 90.416 C 196.764 90.477,196.833 90.310,196.833 90.010 C 196.833 89.668,196.916 89.500,197.083 89.500 C 197.221 89.500,197.333 89.388,197.333 89.250 C 197.333 89.112,197.440 89.000,197.569 89.000 C 197.699 89.000,197.831 88.944,197.861 88.875 C 197.946 88.684,199.018 88.201,199.625 88.081 C 199.923 88.022,200.167 87.904,200.167 87.820 C 200.167 87.541,202.618 87.634,202.727 87.917 C 202.780 88.054,202.969 88.167,203.148 88.167 C 203.882 88.167,204.932 88.920,205.093 89.563 C 205.153 89.803,205.270 90.000,205.351 90.000 C 205.433 90.000,205.500 90.257,205.500 90.571 C 205.500 90.886,205.612 91.255,205.750 91.393 C 205.965 91.608,206.000 92.691,206.000 99.074 L 206.000 106.506 210.042 106.461 L 214.083 106.417 214.190 105.417 C 214.526 102.273,214.300 87.667,213.915 87.667 C 213.794 87.667,213.742 87.512,213.787 87.282 C 213.829 87.057,213.750 86.805,213.597 86.678 C 213.452 86.558,213.333 86.281,213.333 86.063 C 213.333 85.822,213.235 85.667,213.083 85.667 C 212.944 85.667,212.833 85.519,212.833 85.333 C 212.833 84.986,212.289 84.333,212.000 84.333 C 211.908 84.333,211.833 84.221,211.833 84.083 C 211.833 83.946,211.721 83.833,211.583 83.833 C 211.446 83.833,211.333 83.721,211.333 83.583 C 211.333 83.446,211.221 83.333,211.083 83.333 C 210.946 83.333,210.833 83.221,210.833 83.083 C 210.833 82.946,210.721 82.833,210.583 82.833 C 210.446 82.833,210.333 82.716,210.333 82.573 C 210.333 82.431,210.268 82.354,210.189 82.403 C 210.110 82.452,209.910 82.344,209.746 82.163 C 209.582 81.982,209.243 81.833,208.992 81.833 C 208.741 81.833,208.499 81.737,208.453 81.619 C 208.408 81.501,208.093 81.385,207.753 81.362 C 207.414 81.340,206.974 81.218,206.776 81.093 C 206.224 80.742,200.541 80.723,200.083 81.070 M225.882 81.073 C 225.797 81.225,225.427 81.328,224.874 81.353 C 224.281 81.380,224.000 81.464,224.000 81.613 C 224.000 81.758,223.776 81.833,223.343 81.833 C 222.982 81.833,222.633 81.920,222.567 82.026 C 222.489 82.153,222.522 82.173,222.667 82.083 C 222.811 81.994,222.845 82.014,222.766 82.141 C 222.701 82.247,222.389 82.333,222.073 82.333 C 221.675 82.333,221.500 82.410,221.500 82.583 C 221.500 82.800,221.072 82.929,220.613 82.849 C 220.537 82.836,220.526 82.907,220.588 83.007 C 220.651 83.110,220.548 83.229,220.350 83.281 C 220.158 83.331,220.000 83.476,220.000 83.603 C 220.000 83.735,219.830 83.833,219.603 83.833 C 219.339 83.833,219.175 83.951,219.114 84.183 C 219.064 84.376,218.943 84.484,218.845 84.424 C 218.736 84.357,218.667 84.480,218.667 84.740 C 218.667 85.008,218.760 85.167,218.917 85.167 C 219.054 85.167,219.167 85.271,219.167 85.399 C 219.167 85.527,219.273 85.672,219.404 85.722 C 219.548 85.777,219.606 85.946,219.551 86.154 C 219.494 86.375,219.557 86.532,219.731 86.599 C 219.879 86.656,220.000 86.811,220.000 86.944 C 220.000 87.077,220.080 87.137,220.178 87.076 C 220.276 87.016,220.397 87.124,220.447 87.317 C 220.498 87.509,220.643 87.667,220.769 87.667 C 220.898 87.667,221.000 87.834,221.000 88.046 C 221.000 88.418,221.509 89.000,221.835 89.000 C 221.926 89.000,222.000 89.112,222.000 89.250 C 222.000 89.417,222.167 89.500,222.500 89.500 C 222.833 89.500,223.000 89.417,223.000 89.250 C 223.000 89.112,223.141 89.000,223.313 89.000 C 223.485 89.000,223.716 88.892,223.825 88.760 C 223.935 88.628,224.142 88.565,224.286 88.620 C 224.430 88.676,224.631 88.609,224.732 88.471 C 224.834 88.334,225.216 88.174,225.582 88.115 C 225.948 88.056,226.273 87.931,226.304 87.837 C 226.336 87.743,226.647 87.667,226.996 87.667 C 227.407 87.667,227.665 87.578,227.727 87.417 C 227.804 87.215,228.188 87.167,229.727 87.167 C 231.266 87.167,231.649 87.215,231.727 87.417 C 231.790 87.580,232.049 87.667,232.477 87.667 C 232.905 87.667,233.164 87.753,233.227 87.917 C 233.280 88.054,233.438 88.167,233.578 88.167 C 233.908 88.167,234.500 88.759,234.500 89.089 C 234.500 89.229,234.612 89.387,234.750 89.440 C 234.899 89.497,235.000 89.748,235.000 90.059 L 235.000 90.583 230.856 90.531 C 227.270 90.485,226.677 90.513,226.452 90.739 C 226.272 90.919,225.874 91.000,225.173 91.000 C 224.423 91.000,224.131 91.066,224.060 91.250 C 224.002 91.402,223.750 91.500,223.419 91.500 C 223.119 91.500,222.781 91.612,222.667 91.750 C 222.553 91.888,222.279 92.000,222.058 92.000 C 221.837 92.000,221.613 92.112,221.560 92.250 C 221.508 92.388,221.360 92.500,221.232 92.500 C 221.104 92.500,221.000 92.612,221.000 92.750 C 221.000 92.917,220.833 93.000,220.500 93.000 C 220.167 93.000,220.000 93.083,220.000 93.250 C 220.000 93.388,219.887 93.500,219.750 93.500 C 219.612 93.500,219.500 93.595,219.500 93.710 C 219.500 93.826,219.313 94.062,219.083 94.234 C 218.845 94.413,218.667 94.715,218.667 94.940 C 218.667 95.179,218.568 95.333,218.417 95.333 C 218.237 95.333,218.167 95.517,218.167 95.982 C 218.167 96.405,218.080 96.664,217.917 96.727 C 217.711 96.806,217.667 97.237,217.667 99.167 C 217.667 101.096,217.711 101.527,217.917 101.606 C 218.054 101.659,218.167 101.884,218.167 102.106 C 218.167 102.329,218.279 102.554,218.417 102.606 C 218.554 102.659,218.667 102.882,218.667 103.101 C 218.667 103.345,218.764 103.500,218.917 103.500 C 219.054 103.500,219.167 103.612,219.167 103.750 C 219.167 103.888,219.242 104.000,219.333 104.000 C 219.425 104.000,219.500 104.112,219.500 104.250 C 219.500 104.388,219.612 104.500,219.750 104.500 C 219.887 104.500,220.000 104.612,220.000 104.750 C 220.000 104.888,220.104 105.000,220.232 105.000 C 220.360 105.000,220.508 105.112,220.560 105.250 C 220.613 105.388,220.846 105.500,221.078 105.500 C 221.342 105.500,221.500 105.594,221.500 105.750 C 221.500 105.917,221.667 106.000,222.000 106.000 C 222.333 106.000,222.500 106.083,222.500 106.250 C 222.500 106.415,222.665 106.500,222.986 106.500 C 223.253 106.500,223.503 106.594,223.541 106.708 C 223.590 106.853,224.164 106.933,225.430 106.972 C 226.431 107.002,227.321 107.096,227.408 107.180 C 227.622 107.387,229.287 107.376,229.417 107.167 C 229.473 107.075,229.968 107.000,230.515 107.000 C 231.246 107.000,231.536 106.934,231.606 106.750 C 231.659 106.612,231.873 106.500,232.081 106.500 C 232.289 106.500,232.553 106.388,232.667 106.250 C 232.781 106.112,233.015 106.000,233.187 106.000 C 233.359 106.000,233.500 105.888,233.500 105.750 C 233.500 105.583,233.667 105.500,234.000 105.500 C 234.333 105.500,234.500 105.417,234.500 105.250 C 234.500 105.112,234.612 105.000,234.750 105.000 C 234.887 105.000,235.000 104.888,235.000 104.750 C 235.000 104.612,235.112 104.500,235.250 104.500 C 235.445 104.500,235.500 104.723,235.500 105.503 L 235.500 106.506 239.542 106.461 L 243.583 106.417 243.626 97.792 C 243.665 90.194,243.640 89.167,243.418 89.167 C 243.224 89.167,243.167 88.955,243.167 88.238 C 243.167 87.635,243.079 87.222,242.917 87.060 C 242.779 86.922,242.667 86.665,242.667 86.488 C 242.667 86.311,242.592 86.167,242.500 86.167 C 242.408 86.167,242.333 86.022,242.333 85.845 C 242.333 85.494,241.326 84.333,241.022 84.333 C 240.918 84.333,240.833 84.221,240.833 84.083 C 240.833 83.946,240.721 83.833,240.583 83.833 C 240.446 83.833,240.333 83.721,240.333 83.583 C 240.333 83.446,240.221 83.333,240.083 83.333 C 239.946 83.333,239.833 83.221,239.833 83.083 C 239.833 82.946,239.730 82.833,239.604 82.833 C 239.477 82.833,239.281 82.721,239.167 82.583 C 239.053 82.446,238.818 82.333,238.646 82.333 C 238.474 82.333,238.333 82.221,238.333 82.083 C 238.333 81.904,238.150 81.833,237.684 81.833 C 237.262 81.833,237.002 81.746,236.940 81.583 C 236.871 81.404,236.590 81.333,235.940 81.333 C 235.290 81.333,235.009 81.263,234.940 81.083 C 234.799 80.717,226.087 80.707,225.882 81.073 M327.440 81.083 C 327.370 81.264,327.087 81.333,326.417 81.333 C 325.746 81.333,325.463 81.403,325.394 81.583 C 325.331 81.746,325.072 81.833,324.649 81.833 C 324.183 81.833,324.000 81.904,324.000 82.083 C 324.000 82.250,323.833 82.333,323.500 82.333 C 323.167 82.333,323.000 82.417,323.000 82.583 C 323.000 82.721,322.887 82.833,322.750 82.833 C 322.612 82.833,322.500 82.946,322.500 83.083 C 322.500 83.250,322.333 83.333,322.000 83.333 C 321.667 83.333,321.500 83.417,321.500 83.583 C 321.500 83.721,321.387 83.833,321.250 83.833 C 321.112 83.833,321.000 83.946,321.000 84.083 C 321.000 84.221,320.919 84.333,320.820 84.333 C 320.721 84.333,320.309 84.665,319.904 85.070 C 319.498 85.475,319.167 85.888,319.167 85.987 C 319.167 86.086,319.054 86.167,318.917 86.167 C 318.761 86.167,318.667 86.324,318.667 86.583 C 318.667 86.992,318.153 87.667,317.842 87.667 C 317.756 87.667,317.662 88.023,317.634 88.458 C 317.600 88.983,317.513 89.236,317.375 89.208 C 317.228 89.179,317.167 89.441,317.167 90.095 C 317.167 90.698,317.079 91.111,316.917 91.274 C 316.714 91.476,316.667 92.060,316.667 94.350 C 316.667 96.709,316.708 97.193,316.917 97.273 C 317.080 97.336,317.167 97.595,317.167 98.018 C 317.167 98.483,317.237 98.667,317.417 98.667 C 317.602 98.667,317.667 98.861,317.667 99.417 C 317.667 99.972,317.731 100.167,317.917 100.167 C 318.054 100.167,318.167 100.279,318.167 100.417 C 318.167 100.554,318.279 100.667,318.417 100.667 C 318.583 100.667,318.667 100.833,318.667 101.167 C 318.667 101.500,318.750 101.667,318.917 101.667 C 319.054 101.667,319.167 101.747,319.167 101.846 C 319.167 102.079,320.087 103.000,320.321 103.000 C 320.419 103.000,320.500 103.112,320.500 103.250 C 320.500 103.388,320.612 103.500,320.750 103.500 C 320.887 103.500,321.000 103.612,321.000 103.750 C 321.000 103.888,321.112 104.000,321.250 104.000 C 321.387 104.000,321.500 104.112,321.500 104.250 C 321.500 104.388,321.612 104.500,321.750 104.500 C 321.887 104.500,322.000 104.612,322.000 104.750 C 322.000 104.917,322.167 105.000,322.500 105.000 C 322.833 105.000,323.000 105.083,323.000 105.250 C 323.000 105.415,323.165 105.500,323.482 105.500 C 323.757 105.500,324.006 105.607,324.060 105.750 C 324.113 105.888,324.314 106.000,324.507 106.000 C 324.699 106.000,324.970 106.112,325.107 106.250 C 325.245 106.388,325.571 106.500,325.831 106.500 C 326.092 106.500,326.337 106.594,326.375 106.708 C 326.488 107.047,335.811 107.086,335.940 106.749 C 336.009 106.571,336.291 106.500,336.934 106.500 C 337.622 106.500,337.833 106.441,337.833 106.250 C 337.833 106.083,338.000 106.000,338.333 106.000 C 338.667 106.000,338.833 105.917,338.833 105.750 C 338.833 105.583,339.000 105.500,339.333 105.500 C 339.667 105.500,339.833 105.417,339.833 105.250 C 339.833 105.036,340.249 104.908,340.708 104.980 C 340.777 104.991,340.833 104.887,340.833 104.750 C 340.833 104.612,340.946 104.500,341.083 104.500 C 341.221 104.500,341.333 104.388,341.333 104.250 C 341.333 104.111,341.481 104.000,341.667 104.000 C 342.014 104.000,342.667 103.456,342.667 103.167 C 342.667 103.075,342.779 103.000,342.917 103.000 C 343.313 103.000,343.211 102.329,342.750 101.902 C 342.521 101.690,342.333 101.437,342.333 101.341 C 342.333 101.245,342.221 101.167,342.083 101.167 C 341.946 101.167,341.833 101.054,341.833 100.917 C 341.833 100.779,341.721 100.667,341.583 100.667 C 341.446 100.667,341.333 100.554,341.333 100.417 C 341.333 100.279,341.221 100.167,341.083 100.167 C 340.946 100.167,340.833 100.054,340.833 99.917 C 340.833 99.779,340.721 99.667,340.583 99.667 C 340.446 99.667,340.333 99.554,340.333 99.417 C 340.333 99.279,340.248 99.167,340.144 99.167 C 340.040 99.167,339.781 98.979,339.569 98.750 C 339.263 98.420,339.021 98.333,338.402 98.333 C 337.784 98.333,337.541 98.420,337.235 98.750 C 337.023 98.979,336.693 99.167,336.503 99.167 C 336.312 99.167,336.113 99.279,336.060 99.417 C 336.008 99.554,335.783 99.667,335.560 99.667 C 335.338 99.667,335.113 99.779,335.060 99.917 C 334.992 100.095,334.714 100.167,334.097 100.167 C 333.593 100.167,333.095 100.269,332.907 100.411 C 332.464 100.746,330.726 100.750,330.393 100.417 C 330.241 100.264,329.832 100.167,329.349 100.167 C 328.689 100.167,328.474 100.083,328.069 99.671 C 327.802 99.399,327.452 99.174,327.292 99.171 C 326.896 99.165,326.333 98.576,326.333 98.167 C 326.333 97.981,326.222 97.833,326.083 97.833 C 325.946 97.833,325.833 97.698,325.833 97.533 C 325.833 97.368,325.743 97.143,325.633 97.033 C 325.478 96.878,327.515 96.833,334.800 96.833 L 344.167 96.833 344.167 95.854 C 344.167 95.186,344.246 94.808,344.417 94.667 C 344.595 94.519,344.667 94.128,344.667 93.308 C 344.667 92.438,344.606 92.133,344.417 92.060 C 344.228 91.988,344.167 91.682,344.167 90.810 C 344.167 89.938,344.106 89.633,343.917 89.560 C 343.754 89.498,343.667 89.238,343.667 88.816 C 343.667 88.350,343.596 88.167,343.417 88.167 C 343.252 88.167,343.167 88.002,343.167 87.684 C 343.167 87.410,343.059 87.161,342.917 87.106 C 342.779 87.054,342.667 86.821,342.667 86.589 C 342.667 86.318,342.574 86.167,342.407 86.167 C 342.264 86.167,342.194 86.091,342.251 85.999 C 342.308 85.907,342.237 85.786,342.094 85.731 C 341.951 85.676,341.831 85.545,341.828 85.441 C 341.819 85.097,341.023 84.333,340.675 84.333 C 340.482 84.333,340.333 84.224,340.333 84.083 C 340.333 83.946,340.221 83.833,340.083 83.833 C 339.946 83.833,339.833 83.721,339.833 83.583 C 339.833 83.446,339.721 83.333,339.583 83.333 C 339.446 83.333,339.333 83.221,339.333 83.083 C 339.333 82.917,339.167 82.833,338.833 82.833 C 338.500 82.833,338.333 82.750,338.333 82.583 C 338.333 82.446,338.253 82.333,338.155 82.333 C 338.057 82.333,337.864 82.221,337.726 82.083 C 337.589 81.946,337.265 81.833,337.006 81.833 C 336.742 81.833,336.494 81.724,336.440 81.583 C 336.380 81.429,336.127 81.333,335.774 81.333 C 335.461 81.333,334.990 81.221,334.727 81.084 C 334.022 80.716,327.581 80.715,327.440 81.083 M360.227 81.083 C 360.172 81.226,359.924 81.333,359.649 81.333 C 359.331 81.333,359.167 81.419,359.167 81.583 C 359.167 81.750,359.000 81.833,358.667 81.833 C 358.333 81.833,358.167 81.917,358.167 82.083 C 358.167 82.239,358.009 82.333,357.750 82.333 C 357.491 82.333,357.333 82.428,357.333 82.583 C 357.333 82.721,357.221 82.833,357.083 82.833 C 356.946 82.833,356.833 82.946,356.833 83.083 C 356.833 83.890,356.345 83.242,356.300 82.375 L 356.250 81.417 352.195 81.368 C 348.230 81.320,348.137 81.326,348.050 81.659 C 348.001 81.847,347.889 82.000,347.801 82.000 C 347.669 82.000,347.716 89.288,347.859 91.000 C 347.879 91.229,347.889 92.054,347.883 92.833 C 347.876 93.612,347.868 96.537,347.865 99.333 C 347.861 102.129,347.834 104.867,347.804 105.417 L 347.750 106.417 351.905 106.461 C 354.968 106.494,356.092 106.454,356.182 106.309 C 356.249 106.200,356.310 103.143,356.316 99.515 C 356.324 95.210,356.388 92.899,356.498 92.862 C 356.591 92.831,356.714 92.512,356.772 92.153 C 356.829 91.794,356.941 91.500,357.021 91.500 C 357.101 91.500,357.167 91.275,357.167 91.000 C 357.167 90.667,357.250 90.500,357.417 90.500 C 357.554 90.500,357.667 90.425,357.667 90.333 C 357.667 90.117,358.284 89.500,358.500 89.500 C 358.592 89.500,358.667 89.388,358.667 89.250 C 358.667 89.083,358.833 89.000,359.167 89.000 C 359.442 89.000,359.667 88.925,359.667 88.833 C 359.667 88.742,360.000 88.667,360.407 88.667 C 360.814 88.667,361.189 88.599,361.240 88.516 C 361.292 88.433,361.484 88.404,361.667 88.452 C 361.853 88.500,362.000 88.457,362.000 88.353 C 362.000 88.230,362.507 88.167,363.500 88.167 C 364.753 88.167,365.000 88.123,365.000 87.905 C 365.000 87.761,365.106 87.537,365.235 87.408 C 365.409 87.234,365.475 86.660,365.488 85.219 C 365.499 83.986,365.574 83.224,365.691 83.152 C 365.793 83.089,365.825 82.954,365.762 82.852 C 365.699 82.750,365.728 82.667,365.826 82.667 C 366.126 82.667,365.956 81.607,365.592 81.211 C 365.151 80.732,360.405 80.619,360.227 81.083 M259.458 81.681 C 259.101 82.072,259.079 82.643,259.417 82.773 C 259.554 82.826,259.667 83.051,259.667 83.273 C 259.667 83.495,259.779 83.720,259.917 83.773 C 260.080 83.836,260.167 84.095,260.167 84.518 C 260.167 84.983,260.237 85.167,260.417 85.167 C 260.583 85.167,260.667 85.333,260.667 85.667 C 260.667 86.000,260.750 86.167,260.917 86.167 C 261.083 86.167,261.167 86.333,261.167 86.667 C 261.167 87.000,261.250 87.167,261.417 87.167 C 261.583 87.167,261.667 87.333,261.667 87.667 C 261.667 87.942,261.740 88.167,261.830 88.167 C 261.920 88.167,262.041 88.354,262.098 88.583 C 262.156 88.813,262.270 89.000,262.351 89.000 C 262.433 89.000,262.500 89.190,262.500 89.422 C 262.500 89.654,262.612 89.887,262.750 89.940 C 262.893 89.994,263.000 90.243,263.000 90.518 C 263.000 90.835,263.085 91.000,263.250 91.000 C 263.387 91.000,263.506 91.131,263.513 91.292 C 263.538 91.875,263.652 92.245,263.824 92.303 C 263.921 92.335,264.000 92.580,264.000 92.847 C 264.000 93.168,264.085 93.333,264.250 93.333 C 264.417 93.333,264.500 93.500,264.500 93.833 C 264.500 94.167,264.583 94.333,264.750 94.333 C 264.917 94.333,265.000 94.500,265.000 94.833 C 265.000 95.167,265.083 95.333,265.250 95.333 C 265.417 95.333,265.500 95.500,265.500 95.833 C 265.500 96.167,265.583 96.333,265.750 96.333 C 265.917 96.333,266.000 96.500,266.000 96.833 C 266.000 97.167,266.083 97.333,266.250 97.333 C 266.406 97.333,266.500 97.491,266.500 97.750 C 266.500 97.979,266.594 98.167,266.708 98.167 C 266.823 98.167,266.929 98.371,266.943 98.620 C 266.957 98.869,267.051 99.100,267.151 99.134 C 267.251 99.167,267.333 99.378,267.333 99.602 C 267.333 99.827,267.446 100.054,267.583 100.106 C 267.722 100.160,267.833 100.407,267.833 100.664 C 267.833 100.918,267.946 101.219,268.083 101.333 C 268.221 101.447,268.333 101.757,268.333 102.020 C 268.333 102.336,268.419 102.500,268.583 102.500 C 268.750 102.500,268.833 102.667,268.833 103.000 C 268.833 103.333,268.917 103.500,269.083 103.500 C 269.307 103.500,269.442 104.063,269.341 104.577 C 269.324 104.665,269.430 104.825,269.576 104.932 C 269.947 105.203,269.972 106.326,269.611 106.528 C 269.458 106.613,269.333 106.859,269.333 107.074 C 269.333 107.289,269.221 107.508,269.083 107.560 C 268.946 107.613,268.833 107.850,268.833 108.088 C 268.833 108.335,268.762 108.475,268.665 108.416 C 268.573 108.359,268.453 108.429,268.398 108.573 C 268.343 108.716,268.193 108.833,268.066 108.833 C 267.938 108.833,267.833 108.946,267.833 109.083 C 267.833 109.286,267.563 109.333,266.405 109.333 C 265.357 109.333,264.910 109.267,264.726 109.083 C 264.589 108.946,264.327 108.833,264.145 108.833 C 263.963 108.833,263.855 108.766,263.906 108.684 C 264.038 108.470,263.637 108.353,263.113 108.454 C 262.819 108.510,262.629 108.675,262.565 108.930 C 262.511 109.144,262.362 109.407,262.234 109.514 C 262.105 109.620,262.000 109.848,262.000 110.020 C 262.000 110.193,261.925 110.333,261.833 110.333 C 261.742 110.333,261.667 110.561,261.667 110.839 C 261.667 111.134,261.563 111.384,261.417 111.440 C 261.262 111.499,261.167 111.753,261.167 112.106 C 261.167 112.460,261.072 112.714,260.917 112.773 C 260.779 112.826,260.667 113.059,260.667 113.291 C 260.667 113.523,260.536 113.808,260.377 113.925 C 260.102 114.126,260.102 114.153,260.377 114.456 C 260.536 114.632,260.667 114.864,260.667 114.971 C 260.667 115.092,260.955 115.167,261.417 115.167 C 261.972 115.167,262.167 115.231,262.167 115.417 C 262.167 115.574,262.325 115.667,262.595 115.667 C 262.831 115.667,263.136 115.779,263.274 115.917 C 263.438 116.081,263.852 116.167,264.479 116.167 C 265.010 116.167,265.524 116.257,265.637 116.371 C 265.799 116.532,265.911 116.532,266.169 116.371 C 266.381 116.238,267.221 116.167,268.563 116.167 C 270.248 116.167,270.649 116.120,270.727 115.917 C 270.780 115.779,271.013 115.667,271.245 115.667 C 271.509 115.667,271.667 115.573,271.667 115.417 C 271.667 115.250,271.833 115.167,272.167 115.167 C 272.500 115.167,272.667 115.083,272.667 114.917 C 272.667 114.750,272.833 114.667,273.167 114.667 C 273.500 114.667,273.667 114.583,273.667 114.417 C 273.667 114.279,273.779 114.167,273.917 114.167 C 274.054 114.167,274.167 114.054,274.167 113.917 C 274.167 113.779,274.279 113.667,274.417 113.667 C 274.554 113.667,274.667 113.554,274.667 113.417 C 274.667 113.279,274.779 113.167,274.917 113.167 C 275.054 113.167,275.167 113.062,275.167 112.934 C 275.167 112.807,275.284 112.657,275.427 112.602 C 275.571 112.547,275.641 112.427,275.584 112.335 C 275.527 112.242,275.557 112.167,275.650 112.167 C 275.744 112.167,275.910 111.867,276.020 111.500 C 276.130 111.133,276.283 110.833,276.360 110.833 C 276.437 110.833,276.500 110.721,276.500 110.583 C 276.500 110.446,276.612 110.333,276.750 110.333 C 276.915 110.333,277.000 110.169,277.000 109.851 C 277.000 109.576,277.107 109.328,277.250 109.273 C 277.387 109.220,277.500 108.987,277.500 108.755 C 277.500 108.491,277.594 108.333,277.750 108.333 C 277.931 108.333,278.000 108.148,278.000 107.667 C 278.000 107.185,278.069 107.000,278.250 107.000 C 278.417 107.000,278.500 106.833,278.500 106.500 C 278.500 106.167,278.583 106.000,278.750 106.000 C 278.917 106.000,279.000 105.833,279.000 105.500 C 279.000 105.167,279.083 105.000,279.250 105.000 C 279.410 105.000,279.502 104.836,279.505 104.542 C 279.508 104.290,279.621 103.938,279.755 103.760 C 279.890 103.582,280.000 103.271,280.000 103.069 C 280.000 102.867,280.120 102.656,280.267 102.600 C 280.417 102.542,280.493 102.390,280.441 102.253 C 280.390 102.119,280.457 101.900,280.590 101.767 C 280.724 101.633,280.833 101.331,280.833 101.095 C 280.833 100.825,280.926 100.667,281.083 100.667 C 281.250 100.667,281.333 100.500,281.333 100.167 C 281.333 99.833,281.417 99.667,281.583 99.667 C 281.750 99.667,281.833 99.500,281.833 99.167 C 281.833 98.870,281.921 98.667,282.048 98.667 C 282.166 98.667,282.275 98.499,282.290 98.295 C 282.306 98.090,282.434 97.838,282.576 97.735 C 282.726 97.625,282.833 97.295,282.833 96.940 C 282.833 96.512,282.907 96.333,283.083 96.333 C 283.250 96.333,283.333 96.167,283.333 95.833 C 283.333 95.500,283.417 95.333,283.583 95.333 C 283.750 95.333,283.833 95.167,283.833 94.833 C 283.833 94.500,283.917 94.333,284.083 94.333 C 284.248 94.333,284.333 94.169,284.333 93.851 C 284.333 93.576,284.441 93.328,284.583 93.273 C 284.721 93.220,284.833 92.987,284.833 92.755 C 284.833 92.523,284.894 92.333,284.968 92.333 C 285.188 92.333,285.667 91.096,285.667 90.527 C 285.667 90.170,285.747 90.000,285.917 90.000 C 286.083 90.000,286.167 89.833,286.167 89.500 C 286.167 89.167,286.250 89.000,286.417 89.000 C 286.572 89.000,286.667 88.843,286.667 88.583 C 286.667 88.324,286.761 88.167,286.917 88.167 C 287.083 88.167,287.167 88.000,287.167 87.667 C 287.167 87.333,287.250 87.167,287.417 87.167 C 287.581 87.167,287.667 87.002,287.667 86.684 C 287.667 86.410,287.774 86.161,287.917 86.106 C 288.082 86.043,288.167 85.782,288.167 85.339 C 288.167 84.852,288.236 84.667,288.417 84.667 C 288.573 84.667,288.667 84.509,288.667 84.245 C 288.667 84.013,288.779 83.780,288.917 83.727 C 289.054 83.674,289.167 83.461,289.167 83.253 C 289.167 83.044,289.279 82.781,289.417 82.667 C 289.679 82.449,289.736 82.041,289.566 81.597 C 289.416 81.208,281.000 81.195,281.000 81.583 C 281.000 81.721,280.887 81.833,280.750 81.833 C 280.577 81.833,280.500 82.007,280.500 82.399 C 280.500 82.748,280.404 83.001,280.250 83.060 C 280.093 83.120,280.000 83.375,280.000 83.745 C 280.000 84.157,279.925 84.333,279.750 84.333 C 279.585 84.333,279.500 84.498,279.500 84.816 C 279.500 85.090,279.393 85.339,279.250 85.394 C 279.093 85.454,279.000 85.709,279.000 86.078 C 279.000 86.490,278.925 86.667,278.750 86.667 C 278.585 86.667,278.500 86.831,278.500 87.149 C 278.500 87.424,278.393 87.672,278.250 87.727 C 278.085 87.790,278.000 88.051,278.000 88.495 C 278.000 88.981,277.931 89.167,277.750 89.167 C 277.597 89.167,277.500 89.322,277.500 89.566 C 277.500 89.785,277.387 90.008,277.250 90.060 C 277.112 90.113,277.000 90.314,277.000 90.507 C 277.000 90.699,276.887 90.970,276.750 91.107 C 276.612 91.245,276.500 91.502,276.500 91.679 C 276.500 91.855,276.425 92.000,276.333 92.000 C 276.242 92.000,276.167 92.225,276.167 92.500 C 276.167 92.833,276.083 93.000,275.917 93.000 C 275.752 93.000,275.667 93.165,275.667 93.482 C 275.667 93.757,275.559 94.006,275.417 94.060 C 275.260 94.120,275.167 94.375,275.167 94.745 C 275.167 95.157,275.092 95.333,274.917 95.333 C 274.752 95.333,274.667 95.498,274.667 95.816 C 274.667 96.340,274.181 96.702,274.147 96.203 C 274.100 95.498,274.071 95.419,273.875 95.458 C 273.697 95.494,273.577 95.053,273.648 94.620 C 273.660 94.549,273.557 94.447,273.418 94.394 C 273.280 94.341,273.167 94.118,273.167 93.899 C 273.167 93.655,273.069 93.500,272.917 93.500 C 272.731 93.500,272.667 93.306,272.667 92.750 C 272.667 92.194,272.602 92.000,272.417 92.000 C 272.250 92.000,272.167 91.833,272.167 91.500 C 272.167 91.167,272.083 91.000,271.917 91.000 C 271.750 91.000,271.667 90.833,271.667 90.500 C 271.667 90.212,271.579 90.000,271.458 89.999 C 271.337 89.999,271.238 89.754,271.220 89.416 C 271.204 89.095,271.076 88.719,270.936 88.578 C 270.795 88.438,270.723 88.214,270.774 88.080 C 270.827 87.943,270.750 87.791,270.601 87.734 C 270.444 87.674,270.333 87.439,270.333 87.169 C 270.333 86.915,270.221 86.614,270.083 86.500 C 269.946 86.386,269.833 86.074,269.833 85.808 C 269.833 85.530,269.726 85.282,269.583 85.227 C 269.446 85.174,269.333 84.987,269.333 84.810 C 269.333 84.634,269.221 84.446,269.083 84.394 C 268.938 84.338,268.833 84.088,268.833 83.798 C 268.833 83.422,268.771 83.321,268.583 83.394 C 268.359 83.480,268.225 83.018,268.314 82.458 C 268.324 82.390,268.221 82.333,268.083 82.333 C 267.917 82.333,267.833 82.167,267.833 81.833 L 267.833 81.333 263.792 81.347 C 260.031 81.360,259.730 81.383,259.458 81.681 M290.929 81.858 C 290.760 82.197,290.723 82.450,290.825 82.573 C 290.911 82.677,291.005 83.960,291.033 85.423 C 291.075 87.642,291.125 88.087,291.333 88.106 C 291.471 88.118,294.190 88.137,297.375 88.147 C 302.403 88.164,303.167 88.200,303.167 88.417 C 303.167 88.554,303.054 88.667,302.917 88.667 C 302.779 88.667,302.667 88.779,302.667 88.917 C 302.667 89.054,302.554 89.167,302.417 89.167 C 302.279 89.167,302.167 89.279,302.167 89.417 C 302.167 89.554,302.086 89.667,301.987 89.667 C 301.754 89.667,300.833 90.587,300.833 90.821 C 300.833 90.919,300.721 91.000,300.583 91.000 C 300.446 91.000,300.333 91.075,300.333 91.167 C 300.333 91.383,299.716 92.000,299.500 92.000 C 299.408 92.000,299.333 92.225,299.333 92.500 C 299.333 92.833,299.250 93.000,299.083 93.000 C 298.946 93.000,298.833 93.112,298.833 93.250 C 298.833 93.388,298.721 93.500,298.583 93.500 C 298.446 93.500,298.333 93.570,298.333 93.655 C 298.333 93.741,298.173 93.862,297.977 93.924 C 297.504 94.074,295.578 95.993,295.429 96.463 C 295.364 96.667,295.241 96.833,295.155 96.833 C 295.070 96.833,295.000 96.946,295.000 97.083 C 295.000 97.221,294.887 97.333,294.750 97.333 C 294.612 97.333,294.500 97.446,294.500 97.583 C 294.500 97.721,294.387 97.833,294.250 97.833 C 294.112 97.833,294.000 97.946,294.000 98.083 C 294.000 98.221,293.896 98.333,293.768 98.333 C 293.640 98.333,293.491 98.451,293.436 98.594 C 293.381 98.737,293.260 98.808,293.168 98.751 C 293.076 98.694,293.000 98.764,293.000 98.907 C 293.000 99.050,292.887 99.167,292.750 99.167 C 292.612 99.167,292.500 99.279,292.500 99.417 C 292.500 99.554,292.387 99.667,292.250 99.667 C 292.112 99.667,292.000 99.771,292.000 99.899 C 292.000 100.026,291.814 100.177,291.586 100.234 C 291.330 100.299,291.132 100.497,291.068 100.753 C 291.011 100.980,290.894 101.167,290.809 101.167 C 290.719 101.167,290.663 102.283,290.675 103.833 L 290.697 106.500 302.932 106.500 L 315.167 106.500 315.167 103.333 C 315.167 100.630,315.130 100.167,314.917 100.167 C 314.779 100.167,314.667 100.100,314.667 100.018 C 314.667 99.742,314.178 99.679,313.933 99.924 C 313.601 100.256,303.472 100.289,303.207 99.958 C 303.007 99.710,303.135 98.667,303.365 98.667 C 303.586 98.667,305.000 97.236,305.000 97.013 C 305.000 96.914,305.112 96.833,305.250 96.833 C 305.387 96.833,305.500 96.721,305.500 96.583 C 305.500 96.446,305.612 96.333,305.750 96.333 C 305.887 96.333,306.000 96.221,306.000 96.083 C 306.000 95.946,306.112 95.833,306.250 95.833 C 306.387 95.833,306.500 95.721,306.500 95.583 C 306.500 95.446,306.612 95.333,306.750 95.333 C 306.887 95.333,307.000 95.221,307.000 95.083 C 307.000 94.946,307.112 94.833,307.250 94.833 C 307.387 94.833,307.500 94.721,307.500 94.583 C 307.500 94.446,307.612 94.333,307.750 94.333 C 307.887 94.333,308.000 94.221,308.000 94.083 C 308.000 93.946,308.087 93.833,308.193 93.833 C 308.400 93.833,309.833 92.344,309.833 92.129 C 309.833 92.058,309.946 92.000,310.083 92.000 C 310.221 92.000,310.333 91.888,310.333 91.750 C 310.333 91.612,310.446 91.500,310.583 91.500 C 310.721 91.500,310.833 91.388,310.833 91.250 C 310.833 91.112,310.946 91.000,311.083 91.000 C 311.221 91.000,311.333 90.888,311.333 90.750 C 311.333 90.612,311.446 90.500,311.583 90.500 C 311.721 90.500,311.833 90.388,311.833 90.250 C 311.833 90.112,311.946 90.000,312.083 90.000 C 312.221 90.000,312.333 89.888,312.333 89.750 C 312.333 89.612,312.446 89.500,312.583 89.500 C 312.721 89.500,312.833 89.388,312.833 89.250 C 312.833 89.112,312.914 89.000,313.013 89.000 C 313.246 89.000,314.167 88.079,314.167 87.846 C 314.167 87.747,314.242 87.667,314.333 87.667 C 315.129 87.667,315.675 82.185,314.908 81.890 C 314.775 81.839,314.667 81.693,314.667 81.566 C 314.667 81.369,312.851 81.333,302.929 81.333 L 291.191 81.333 290.929 81.858 M167.399 84.546 C 167.463 84.887,167.587 85.167,167.674 85.167 C 167.762 85.167,167.833 85.392,167.833 85.667 C 167.833 86.000,167.917 86.167,168.083 86.167 C 168.249 86.167,168.333 86.332,168.333 86.655 C 168.333 86.923,168.446 87.255,168.583 87.393 C 168.721 87.530,168.833 87.761,168.833 87.905 C 168.833 88.049,168.946 88.167,169.083 88.167 C 169.264 88.167,169.333 88.352,169.333 88.833 C 169.333 89.315,169.403 89.500,169.583 89.500 C 169.750 89.500,169.833 89.667,169.833 90.000 C 169.833 90.311,169.912 90.484,170.042 90.458 C 170.174 90.432,170.270 90.660,170.304 91.083 C 170.334 91.450,170.465 91.810,170.596 91.883 C 171.630 92.463,170.327 92.647,165.992 92.534 L 163.000 92.455 163.000 91.995 C 163.000 91.740,163.111 91.493,163.250 91.440 C 163.387 91.387,163.500 91.162,163.500 90.940 C 163.500 90.717,163.612 90.492,163.750 90.440 C 163.913 90.377,164.000 90.117,164.000 89.690 C 164.000 89.262,164.087 89.002,164.250 88.940 C 164.387 88.887,164.500 88.689,164.500 88.500 C 164.500 88.311,164.612 88.113,164.750 88.060 C 164.887 88.008,165.002 87.804,165.005 87.607 C 165.008 87.411,165.121 87.104,165.255 86.926 C 165.390 86.749,165.500 86.400,165.500 86.153 C 165.500 85.905,165.612 85.659,165.750 85.606 C 165.898 85.550,166.000 85.299,166.000 84.993 C 166.000 84.709,166.094 84.372,166.208 84.244 C 166.323 84.116,166.515 83.895,166.634 83.753 C 166.932 83.399,167.244 83.723,167.399 84.546 M332.227 87.417 C 332.287 87.573,332.541 87.667,332.902 87.667 C 333.544 87.667,334.451 88.134,334.828 88.659 C 334.963 88.847,335.170 89.000,335.287 89.000 C 335.413 89.000,335.500 89.205,335.500 89.500 C 335.500 89.833,335.583 90.000,335.750 90.000 C 335.917 90.000,336.000 90.167,336.000 90.500 L 336.000 91.000 330.667 91.000 C 326.037 91.000,325.333 90.967,325.333 90.750 C 325.333 90.612,325.446 90.500,325.583 90.500 C 325.750 90.500,325.833 90.333,325.833 90.000 C 325.833 89.667,325.917 89.500,326.083 89.500 C 326.221 89.500,326.333 89.388,326.333 89.250 C 326.333 89.112,326.450 89.000,326.593 89.000 C 326.736 89.000,326.807 88.925,326.750 88.833 C 326.693 88.742,326.766 88.667,326.912 88.667 C 327.058 88.667,327.220 88.554,327.273 88.417 C 327.326 88.279,327.507 88.167,327.676 88.167 C 327.845 88.167,328.051 88.047,328.133 87.900 C 328.228 87.730,328.507 87.633,328.903 87.633 C 329.281 87.633,329.558 87.542,329.613 87.400 C 329.745 87.054,332.094 87.069,332.227 87.417 M235.000 97.083 C 235.000 98.083,234.950 98.333,234.750 98.333 C 234.612 98.333,234.500 98.433,234.500 98.556 C 234.500 98.805,233.596 99.667,233.335 99.667 C 233.242 99.667,233.167 99.771,233.167 99.899 C 233.167 100.026,232.979 100.178,232.750 100.235 C 232.521 100.293,232.333 100.413,232.333 100.503 C 232.333 100.593,231.993 100.667,231.578 100.667 C 231.061 100.667,230.793 100.745,230.727 100.917 C 230.654 101.108,230.340 101.167,229.399 101.167 C 228.415 101.167,228.167 101.116,228.167 100.917 C 228.167 100.736,227.981 100.667,227.500 100.667 C 227.043 100.667,226.833 100.594,226.833 100.436 C 226.833 100.309,226.676 100.164,226.483 100.114 C 226.290 100.064,226.183 99.943,226.243 99.845 C 226.304 99.747,226.236 99.667,226.093 99.667 C 225.893 99.667,225.833 99.478,225.833 98.847 C 225.833 97.889,225.964 97.458,226.210 97.610 C 226.307 97.670,226.336 97.639,226.275 97.541 C 226.081 97.226,226.357 96.833,226.773 96.833 C 226.995 96.833,227.220 96.721,227.273 96.583 C 227.340 96.408,227.614 96.333,228.190 96.333 C 228.766 96.333,229.039 96.259,229.106 96.083 C 229.187 95.874,229.678 95.833,232.101 95.833 L 235.000 95.833 235.000 97.083 " stroke="none" fill="#fafbfb" fill-rule="evenodd"></path><path id="path2" d="M115.323 43.064 C 115.271 43.117,104.396 43.236,91.156 43.327 C 62.075 43.529,60.702 43.591,60.356 44.718 C 60.154 45.377,60.215 50.282,60.428 50.495 C 60.524 50.591,60.565 49.498,60.534 47.633 C 60.503 45.727,60.548 44.552,60.656 44.444 C 61.478 43.622,116.244 43.066,118.529 43.857 C 119.490 44.189,120.667 45.024,120.667 45.373 C 120.667 45.944,117.316 49.361,114.765 51.392 C 113.861 52.112,112.097 53.610,111.601 54.080 C 111.500 54.176,110.892 54.666,110.251 55.169 C 109.610 55.672,108.935 56.210,108.751 56.364 C 108.276 56.764,107.129 57.670,105.583 58.869 C 104.850 59.438,104.165 59.981,104.062 60.077 C 103.959 60.172,103.706 60.362,103.500 60.500 C 103.294 60.637,103.041 60.825,102.938 60.918 C 102.835 61.010,102.031 61.665,101.153 62.374 C 100.274 63.083,99.186 64.004,98.736 64.421 C 98.285 64.838,97.598 65.414,97.208 65.701 C 96.819 65.988,96.500 66.285,96.500 66.362 C 96.500 66.438,96.414 66.500,96.310 66.500 C 96.136 66.500,94.892 67.496,93.840 68.478 C 93.607 68.696,93.169 69.063,92.867 69.296 C 92.499 69.579,92.333 69.834,92.367 70.068 C 92.417 70.416,92.436 70.417,101.667 70.500 C 111.860 70.592,111.450 70.548,112.630 71.663 C 113.677 72.653,113.896 73.282,113.907 75.333 C 113.925 78.953,112.395 81.812,107.977 86.411 C 107.093 87.331,106.118 88.374,105.810 88.729 C 104.835 89.854,101.730 92.815,100.283 94.000 C 100.003 94.229,99.019 95.060,98.095 95.845 C 97.172 96.631,95.913 97.657,95.298 98.125 C 94.683 98.592,94.083 99.058,93.965 99.159 C 93.078 99.919,91.221 101.314,90.250 101.949 C 89.608 102.368,88.446 103.135,87.667 103.653 C 85.905 104.823,82.238 106.646,80.083 107.422 C 79.625 107.587,79.179 107.784,79.092 107.861 C 79.005 107.937,78.828 108.000,78.700 108.000 C 78.572 108.000,78.231 108.102,77.942 108.227 C 77.653 108.352,77.079 108.588,76.667 108.750 C 76.254 108.912,75.680 109.148,75.391 109.273 C 75.103 109.398,74.724 109.500,74.550 109.500 C 74.376 109.500,74.162 109.563,74.075 109.639 C 73.988 109.716,73.542 109.913,73.083 110.077 C 72.625 110.241,72.025 110.473,71.750 110.591 C 71.475 110.710,70.725 110.971,70.083 111.171 C 69.442 111.370,68.767 111.592,68.583 111.664 C 67.163 112.218,65.875 112.667,65.704 112.667 C 65.592 112.667,65.500 112.779,65.500 112.917 C 65.500 113.276,66.245 113.232,66.521 112.856 C 66.666 112.659,67.917 112.166,69.917 111.516 C 72.598 110.645,75.163 109.702,77.417 108.758 C 77.692 108.642,78.554 108.303,79.333 108.003 C 84.565 105.992,88.839 103.491,94.000 99.422 C 96.275 97.628,97.953 96.260,98.917 95.413 C 99.467 94.930,100.329 94.212,100.833 93.816 C 103.322 91.865,110.538 84.162,112.105 81.784 C 115.664 76.381,114.837 71.195,110.284 70.354 C 109.644 70.235,106.728 70.212,101.448 70.282 C 93.627 70.386,92.666 70.350,92.667 69.955 C 92.668 69.736,94.669 67.967,96.583 66.494 C 97.225 66.000,98.194 65.191,98.738 64.696 C 99.727 63.795,104.298 60.119,106.333 58.589 C 106.929 58.141,107.867 57.391,108.417 56.922 C 108.967 56.454,109.754 55.816,110.167 55.504 C 110.579 55.192,111.479 54.441,112.167 53.834 C 112.854 53.228,113.792 52.448,114.250 52.102 C 114.708 51.756,115.751 50.860,116.567 50.112 C 117.383 49.363,118.304 48.533,118.613 48.267 C 119.398 47.592,120.833 45.732,120.833 45.389 C 120.833 44.365,116.031 42.339,115.323 43.064 M61.083 50.836 C 61.267 50.916,69.494 50.981,79.413 50.981 C 97.508 50.980,98.218 51.001,97.280 51.526 C 97.136 51.607,96.092 52.410,94.962 53.310 C 93.832 54.210,92.122 55.525,91.162 56.232 C 90.202 56.939,88.198 58.470,86.708 59.634 C 85.219 60.798,83.373 62.237,82.606 62.833 C 81.840 63.429,80.883 64.183,80.481 64.507 C 80.079 64.832,79.000 65.692,78.083 66.417 C 77.167 67.143,76.144 67.975,75.811 68.267 C 75.216 68.788,75.166 68.800,73.061 68.907 C 69.759 69.075,68.704 69.268,67.758 69.875 C 62.764 73.079,54.220 81.069,55.297 81.528 C 55.698 81.698,57.938 85.046,58.653 86.544 C 59.317 87.935,60.009 87.740,63.000 85.317 C 63.504 84.908,64.404 84.203,65.000 83.750 C 65.596 83.296,66.271 82.753,66.500 82.542 C 66.729 82.331,67.358 81.841,67.898 81.454 C 68.437 81.067,69.769 80.075,70.858 79.250 C 71.947 78.425,73.328 77.412,73.927 77.000 C 74.526 76.587,76.329 75.181,77.932 73.875 L 80.848 71.500 83.915 71.500 C 91.879 71.500,94.673 72.605,95.891 76.238 C 97.224 80.213,95.369 82.913,86.012 90.611 C 82.969 93.115,77.179 96.922,71.500 100.153 C 70.590 100.670,67.260 102.318,65.500 103.121 C 64.996 103.352,64.058 103.784,63.417 104.081 C 60.539 105.417,60.017 105.643,58.958 106.017 C 58.340 106.235,57.833 106.508,57.833 106.624 C 57.833 106.739,57.721 106.833,57.583 106.833 C 57.446 106.833,57.333 106.946,57.333 107.083 C 57.333 107.221,57.402 107.333,57.486 107.333 C 57.571 107.333,57.777 107.378,57.945 107.432 C 58.184 107.510,58.199 107.495,58.013 107.363 C 57.724 107.158,58.179 106.333,58.582 106.333 C 58.714 106.333,59.068 106.227,59.369 106.097 C 59.670 105.967,60.217 105.737,60.583 105.585 C 61.301 105.288,61.508 105.194,63.667 104.194 C 69.220 101.621,70.926 100.757,73.176 99.379 C 73.777 99.011,74.434 98.657,74.635 98.593 C 74.836 98.530,75.000 98.408,75.000 98.322 C 75.000 98.237,75.084 98.167,75.187 98.167 C 75.350 98.167,76.459 97.516,77.810 96.627 C 78.052 96.467,78.362 96.285,78.500 96.222 C 78.637 96.159,79.275 95.727,79.917 95.262 C 80.558 94.797,81.841 93.910,82.766 93.292 C 83.692 92.674,84.652 91.981,84.900 91.751 C 85.148 91.521,85.415 91.333,85.495 91.333 C 85.574 91.333,85.664 91.277,85.694 91.208 C 85.725 91.140,86.087 90.809,86.500 90.474 C 86.912 90.138,87.583 89.550,87.990 89.165 C 88.397 88.781,89.072 88.206,89.490 87.888 C 90.798 86.892,93.844 83.960,94.626 82.944 C 97.902 78.689,96.605 73.931,91.575 71.746 C 90.890 71.449,82.046 71.092,80.980 71.319 C 80.569 71.407,79.759 72.007,77.589 73.833 C 76.145 75.049,75.422 75.612,74.106 76.546 C 73.360 77.076,72.305 77.826,71.760 78.213 C 71.216 78.600,70.579 79.095,70.344 79.312 C 70.109 79.530,69.617 79.898,69.250 80.130 C 68.446 80.638,66.962 81.775,66.178 82.483 C 65.864 82.767,65.563 83.000,65.510 83.000 C 65.457 83.000,65.222 83.177,64.989 83.393 C 64.533 83.816,60.866 86.593,60.148 87.059 C 59.617 87.404,59.246 87.284,59.018 86.695 C 58.924 86.450,58.620 85.875,58.342 85.417 C 58.065 84.958,57.750 84.415,57.642 84.208 C 57.534 84.002,57.384 83.833,57.307 83.833 C 57.230 83.833,57.167 83.732,57.167 83.609 C 57.167 83.485,57.018 83.204,56.836 82.984 C 55.164 80.955,55.160 81.059,56.961 79.286 C 57.670 78.587,58.438 77.856,58.667 77.662 C 58.896 77.467,59.496 76.914,60.000 76.432 C 62.691 73.862,67.347 70.219,68.659 69.657 C 69.300 69.383,71.246 69.177,73.252 69.172 L 75.087 69.167 76.419 68.066 C 77.151 67.461,77.903 66.837,78.091 66.680 C 78.278 66.523,78.953 65.996,79.591 65.509 C 80.228 65.022,80.787 64.572,80.833 64.509 C 80.879 64.447,81.704 63.802,82.667 63.078 C 84.224 61.905,84.964 61.308,85.565 60.742 C 85.667 60.646,86.688 59.866,87.833 59.008 C 88.979 58.150,89.954 57.403,90.000 57.349 C 90.046 57.294,90.417 57.024,90.824 56.750 C 91.613 56.217,95.324 53.354,96.389 52.456 C 96.741 52.159,97.170 51.850,97.344 51.768 C 97.692 51.604,97.913 51.097,97.751 50.835 C 97.682 50.723,91.439 50.671,79.198 50.678 C 68.504 50.685,60.890 50.751,61.083 50.836 M248.053 91.500 C 248.053 92.096,248.084 92.340,248.121 92.042 C 248.158 91.744,248.158 91.256,248.121 90.958 C 248.084 90.660,248.053 90.904,248.053 91.500 " stroke="none" fill="#93b1de" fill-rule="evenodd"></path><path id="path3" d="M109.750 43.000 L 104.417 43.090 109.750 43.114 C 112.683 43.127,115.458 43.079,115.917 43.008 L 116.750 42.878 115.917 42.894 C 115.458 42.902,112.683 42.950,109.750 43.000 M68.167 43.155 C 66.935 43.249,97.639 43.207,99.583 43.113 C 100.133 43.086,93.571 43.063,85.000 43.062 C 76.429 43.061,68.854 43.103,68.167 43.155 M117.750 43.328 C 118.300 43.495,118.907 43.696,119.098 43.774 C 119.708 44.024,120.833 45.061,120.833 45.373 C 120.833 45.729,119.415 47.578,118.613 48.267 C 118.304 48.533,117.383 49.363,116.567 50.112 C 115.751 50.860,114.708 51.756,114.250 52.102 C 113.792 52.448,112.854 53.228,112.167 53.834 C 111.479 54.441,110.579 55.192,110.167 55.504 C 109.754 55.816,108.967 56.454,108.417 56.922 C 107.867 57.391,106.929 58.141,106.333 58.589 C 104.298 60.119,99.727 63.795,98.738 64.696 C 98.194 65.191,97.225 66.000,96.583 66.494 C 94.669 67.967,92.668 69.736,92.667 69.955 C 92.666 70.350,93.627 70.386,101.448 70.282 C 106.728 70.212,109.644 70.235,110.284 70.354 C 114.837 71.195,115.664 76.381,112.105 81.784 C 110.538 84.162,103.322 91.865,100.833 93.816 C 100.329 94.212,99.467 94.930,98.917 95.413 C 97.953 96.260,96.275 97.628,94.000 99.422 C 88.839 103.491,84.565 105.992,79.333 108.003 C 78.554 108.303,77.692 108.642,77.417 108.758 C 75.186 109.692,72.591 110.649,69.857 111.546 C 67.089 112.455,65.610 113.167,66.492 113.167 C 66.588 113.167,66.667 113.054,66.667 112.917 C 66.667 112.779,66.764 112.667,66.884 112.667 C 67.447 112.667,75.688 109.791,77.417 108.991 C 77.600 108.906,78.253 108.650,78.869 108.422 C 80.327 107.882,83.967 106.269,84.967 105.721 C 86.732 104.752,87.824 104.069,91.084 101.891 C 91.900 101.346,94.507 99.330,95.333 98.604 C 95.563 98.403,96.175 97.925,96.694 97.541 C 97.213 97.158,97.824 96.673,98.051 96.464 C 98.278 96.254,98.753 95.817,99.107 95.492 C 99.460 95.167,100.162 94.592,100.667 94.214 C 102.141 93.108,108.739 86.478,110.252 84.583 C 110.617 84.125,110.964 83.712,111.022 83.667 C 111.233 83.499,112.965 80.889,113.298 80.236 C 114.986 76.928,114.882 73.148,113.057 71.485 C 111.416 69.989,111.101 69.949,101.412 70.022 C 94.986 70.070,93.139 70.038,92.976 69.875 C 92.822 69.722,92.819 69.667,92.963 69.667 C 93.072 69.667,93.668 69.206,94.288 68.643 C 94.909 68.080,96.017 67.166,96.750 66.612 C 97.483 66.058,98.235 65.445,98.420 65.252 C 98.947 64.700,102.573 61.695,104.470 60.238 C 106.222 58.892,107.581 57.821,109.186 56.525 C 109.679 56.126,110.379 55.564,110.740 55.275 C 111.101 54.986,111.926 54.294,112.574 53.737 C 113.221 53.180,114.097 52.464,114.522 52.146 C 116.847 50.402,120.615 46.595,120.989 45.613 C 121.234 44.968,119.777 43.678,118.360 43.284 C 116.998 42.905,116.478 42.943,117.750 43.328 M62.617 43.504 C 61.902 43.572,61.270 43.674,61.214 43.731 C 61.041 43.903,63.000 43.821,64.500 43.593 L 65.917 43.377 64.917 43.379 C 64.367 43.379,63.332 43.436,62.617 43.504 M59.881 46.083 C 59.882 46.542,59.915 46.709,59.953 46.456 C 59.991 46.203,59.990 45.828,59.951 45.623 C 59.911 45.418,59.880 45.625,59.881 46.083 M59.871 48.917 C 59.871 50.362,59.890 50.480,60.020 49.808 C 60.107 49.355,60.107 48.664,60.021 48.142 C 59.884 47.322,59.872 47.385,59.871 48.917 M78.722 50.998 C 68.990 51.045,60.968 51.143,60.894 51.217 C 60.821 51.291,68.880 51.307,78.805 51.254 C 88.729 51.201,96.922 51.202,97.011 51.257 C 97.099 51.311,96.627 51.779,95.961 52.295 C 95.295 52.812,94.712 53.278,94.667 53.331 C 94.621 53.384,93.946 53.909,93.167 54.498 C 92.388 55.086,91.675 55.629,91.583 55.704 C 91.492 55.779,90.667 56.396,89.750 57.077 C 87.980 58.390,85.572 60.244,83.403 61.962 C 82.677 62.537,81.446 63.511,80.667 64.127 C 79.887 64.743,79.212 65.287,79.167 65.336 C 79.121 65.384,78.558 65.831,77.917 66.329 C 76.498 67.431,76.581 67.365,75.693 68.082 C 75.024 68.622,74.877 68.668,73.776 68.686 C 73.120 68.697,72.096 68.766,71.500 68.841 C 70.746 68.935,71.126 68.951,72.750 68.895 C 74.166 68.846,75.191 68.736,75.357 68.615 C 75.601 68.439,78.480 66.132,80.481 64.509 C 80.883 64.183,81.840 63.429,82.606 62.833 C 83.373 62.237,85.219 60.798,86.708 59.634 C 88.198 58.470,90.202 56.939,91.162 56.232 C 92.122 55.525,93.832 54.210,94.962 53.310 C 96.092 52.410,97.137 51.606,97.284 51.524 C 97.709 51.287,97.423 50.827,96.880 50.873 C 96.625 50.895,88.454 50.951,78.722 50.998 M68.302 69.339 C 67.675 69.671,67.348 70.000,67.647 70.000 C 67.739 70.000,67.859 69.927,67.914 69.838 C 68.084 69.563,69.050 69.184,69.750 69.119 L 70.417 69.056 69.667 69.035 C 69.210 69.023,68.677 69.141,68.302 69.339 M66.250 70.705 C 63.384 72.676,57.698 77.724,55.498 80.250 C 55.179 80.617,55.892 79.976,57.084 78.826 C 61.119 74.931,62.748 73.508,65.458 71.512 C 67.059 70.333,67.508 69.965,67.292 70.008 C 67.269 70.013,66.800 70.326,66.250 70.705 M78.985 73.030 C 77.939 73.871,76.622 74.940,76.057 75.405 C 75.493 75.870,74.720 76.464,74.339 76.726 C 73.958 76.988,73.684 77.240,73.730 77.285 C 73.797 77.353,75.699 76.003,76.000 75.674 C 76.046 75.624,76.458 75.286,76.917 74.922 C 77.375 74.559,77.787 74.221,77.833 74.172 C 78.140 73.845,80.632 71.912,80.984 71.728 C 81.247 71.591,81.312 71.502,81.151 71.501 C 81.006 71.500,80.031 72.188,78.985 73.030 M83.917 71.612 C 91.588 71.871,93.243 72.364,94.996 74.911 C 97.343 78.322,95.636 82.529,90.167 86.813 C 89.662 87.208,88.620 88.105,87.850 88.807 C 85.109 91.305,78.400 96.004,74.452 98.191 C 73.608 98.659,72.879 99.089,72.833 99.146 C 72.649 99.376,67.254 102.120,65.250 103.004 C 64.792 103.206,63.592 103.765,62.583 104.247 C 60.720 105.137,57.806 106.333,57.501 106.333 C 57.409 106.333,57.333 106.455,57.333 106.604 C 57.333 106.827,57.289 106.837,57.080 106.664 C 56.866 106.487,56.843 106.498,56.934 106.736 C 56.996 106.897,57.147 106.979,57.285 106.926 C 57.418 106.875,57.596 106.833,57.680 106.833 C 57.764 106.833,57.833 106.739,57.833 106.624 C 57.833 106.508,58.340 106.235,58.958 106.017 C 60.017 105.643,60.539 105.417,63.417 104.081 C 64.058 103.784,64.996 103.352,65.500 103.121 C 67.260 102.318,70.590 100.670,71.500 100.153 C 80.397 95.091,86.622 90.590,92.225 85.167 C 95.904 81.606,96.888 79.210,95.891 76.238 C 94.703 72.694,91.582 71.415,84.417 71.536 C 82.920 71.561,82.829 71.575,83.917 71.612 M72.898 77.718 C 71.905 78.418,66.566 82.458,66.326 82.691 C 66.192 82.821,65.596 83.298,65.000 83.751 C 64.404 84.203,63.504 84.908,63.000 85.317 C 61.811 86.280,59.687 87.667,59.400 87.667 C 59.277 87.667,58.974 87.235,58.727 86.708 C 57.822 84.780,55.000 80.681,55.000 81.296 C 55.000 81.380,55.150 81.584,55.333 81.750 C 55.848 82.216,57.720 85.103,58.438 86.539 C 58.888 87.437,59.176 87.829,59.388 87.831 C 59.893 87.835,62.463 86.028,65.719 83.381 C 66.793 82.508,68.985 80.835,69.494 80.500 C 69.703 80.362,69.959 80.171,70.062 80.074 C 70.165 79.977,70.981 79.349,71.875 78.679 C 72.769 78.008,73.500 77.431,73.500 77.396 C 73.500 77.301,73.458 77.323,72.898 77.718 " stroke="none" fill="#848cbc" fill-rule="evenodd"></path><path id="path4" d="M50.667 28.000 L 49.750 28.112 50.583 28.123 C 51.042 28.129,51.604 28.073,51.833 28.000 C 52.345 27.836,52.004 27.836,50.667 28.000 M53.458 27.951 C 53.665 27.991,54.002 27.991,54.208 27.951 C 54.415 27.911,54.246 27.879,53.833 27.879 C 53.421 27.879,53.252 27.911,53.458 27.951 M74.572 27.961 C 74.621 28.010,75.228 28.067,75.922 28.089 C 76.616 28.110,77.144 28.088,77.095 28.040 C 77.047 27.991,76.439 27.934,75.746 27.912 C 75.052 27.891,74.524 27.913,74.572 27.961 M58.042 28.119 C 58.294 28.158,58.706 28.158,58.958 28.119 C 59.210 28.081,59.004 28.050,58.500 28.050 C 57.996 28.050,57.790 28.081,58.042 28.119 M71.960 28.118 C 72.168 28.158,72.468 28.156,72.627 28.115 C 72.786 28.073,72.617 28.040,72.250 28.042 C 71.883 28.044,71.753 28.078,71.960 28.118 M89.794 28.118 C 90.001 28.158,90.301 28.156,90.460 28.115 C 90.620 28.073,90.450 28.040,90.083 28.042 C 89.717 28.044,89.586 28.078,89.794 28.118 M92.129 28.122 C 92.521 28.157,93.121 28.157,93.463 28.121 C 93.804 28.085,93.483 28.057,92.750 28.057 C 92.017 28.058,91.737 28.087,92.129 28.122 M104.125 28.124 C 104.790 28.155,105.877 28.155,106.542 28.124 C 107.206 28.092,106.662 28.066,105.333 28.066 C 104.004 28.066,103.460 28.092,104.125 28.124 M62.455 28.287 C 62.750 28.324,63.275 28.324,63.621 28.288 C 63.967 28.252,63.725 28.222,63.083 28.221 C 62.442 28.221,62.159 28.250,62.455 28.287 M65.125 28.284 C 65.331 28.324,65.669 28.324,65.875 28.284 C 66.081 28.245,65.912 28.212,65.500 28.212 C 65.087 28.212,64.919 28.245,65.125 28.284 M42.350 42.597 C 42.359 42.865,42.425 43.271,42.497 43.500 C 42.595 43.813,42.620 43.721,42.596 43.129 C 42.579 42.696,42.512 42.290,42.449 42.227 C 42.385 42.163,42.341 42.330,42.350 42.597 M83.333 43.187 C 72.503 43.262,65.804 43.371,65.333 43.479 L 64.583 43.651 65.417 43.579 C 65.875 43.540,74.822 43.456,85.299 43.393 C 95.775 43.330,104.386 43.216,104.433 43.140 C 104.481 43.063,103.634 43.015,102.552 43.034 C 101.469 43.052,92.821 43.121,83.333 43.187 M59.941 43.961 C 59.897 44.031,59.888 44.838,59.921 45.753 C 59.953 46.668,59.986 47.679,59.995 48.000 C 60.008 48.504,60.035 48.541,60.191 48.271 C 60.309 48.069,60.332 47.495,60.258 46.643 C 60.117 45.029,60.326 44.259,60.968 44.024 C 61.390 43.869,61.375 43.859,60.718 43.846 C 60.334 43.839,59.984 43.891,59.941 43.961 M60.000 50.123 C 60.000 50.887,60.233 51.167,60.867 51.167 C 61.477 51.167,61.461 50.955,60.833 50.718 C 60.459 50.577,60.333 50.423,60.333 50.108 C 60.333 49.876,60.258 49.640,60.167 49.583 C 60.067 49.521,60.000 49.737,60.000 50.123 " stroke="none" fill="#74b4f4" fill-rule="evenodd"></path></g></svg>